<svg width="64" height="64" viewBox="0 0 64 64" fill="none" xmlns="http://www.w3.org/2000/svg">
<g id="icon-placeholder">
<g id="Group">
<g id="Vector">
<path fill-rule="evenodd" clip-rule="evenodd" d="M40.2995 49.0628H42.2005C51.0461 48.3529 55.3957 44.0325 56.5496 42.7536L57.0096 42.3282L57.8737 41.1903C58.7377 39.5951 59.1711 37.1836 58.9371 35.5937L56.6028 25.7033C56.1694 28.4311 55.0182 32.0124 52.3967 35.7346C49.3711 40.0258 45.4521 42.8972 42.687 44.4871C39.6295 46.1887 37.4759 46.9066 37.3271 46.9066C35.846 47.473 34.2732 47.7614 32.6876 47.7574C35.2506 48.781 37.7285 49.0654 40.3234 49.0654L40.2995 49.0628Z" fill="white"/>
<path fill-rule="evenodd" clip-rule="evenodd" d="M46.5496 55.2257L52.9465 47.324C50.4686 48.6321 46.983 50.0518 42.3116 50.3363C41.5938 50.3363 41.0142 50.4799 40.2644 50.4799C31.1317 50.4799 23.9851 45.9069 23.9851 45.7633H23.8707C22.5733 44.9125 21.3928 43.9155 20.3878 42.751C21.6853 45.9335 23.4134 48.6347 25.5989 50.9398C31.706 57.3899 37.7865 58.1024 39.5439 58.1024H41.2986C43.0534 57.818 45.3931 56.6534 46.5416 55.231L46.5496 55.2257ZM21.1695 22.2868C22.4669 21.1489 23.6155 20.1279 24.9449 19.4154C22.1798 19.8674 19.0106 20.8644 15.8121 22.5979C8.1178 27.0353 6.07591 32.7436 5.63988 34.3361L5.35273 35.4741C4.91936 37.3511 5.63988 40.1906 6.82301 41.7832L13.2199 49.653C12.2469 46.109 12.0403 42.3984 12.6137 38.7682C13.3316 33.6236 15.6712 29.3298 17.5696 26.7508C19.2711 24.0229 21.0259 22.2895 21.1721 22.2895L21.1695 22.2868ZM20.9993 10.8064C24.2409 10.8134 27.4503 11.4509 30.4484 12.6835C35.4043 14.5313 39.0042 17.6819 41.3385 19.987C43.7846 22.4064 44.9411 24.56 44.9411 24.56L45.0847 24.6743C45.9488 25.9824 46.5549 27.4022 46.9564 28.8219C47.1 26.0941 46.9564 22.6537 45.8052 19.2426C43.1837 10.7719 37.9699 7.61863 36.3561 6.76784L35.2049 6.19888C34.3381 5.77348 33.155 5.63257 32.0038 5.63257C30.903 5.63363 29.8108 5.82616 28.7761 6.20153L19.6434 10.5193C19.989 10.8038 20.5952 10.8064 20.9993 10.8064ZM9.09887 18.9953L6.76717 28.7103C8.81439 25.8654 11.5529 23.4247 15.0624 21.4068C20.9967 17.9956 27.25 17.5436 30.4457 17.5436L33.4714 17.6846C35.0852 17.8281 36.5289 18.2535 37.9912 18.8225C35.5401 16.6815 32.7313 14.9886 29.6933 13.8214C26.9283 12.7978 23.9026 12.0879 20.9913 12.0879C17.6493 12.0879 15.315 12.9387 14.3073 13.3641L13.7304 13.6486L12.6669 14.074C11.1115 15.1269 9.49768 17.2857 9.06431 18.9926L9.09887 18.9953ZM51.1918 35.1656C56.2912 27.8621 55.5707 21.8375 55.2543 20.1013L55.1107 19.5324L54.8236 18.538C54.2466 16.6902 52.4892 14.6722 50.9046 13.8214L41.7719 9.53025C44.229 12.2555 46.0586 15.4864 47.1319 18.9953C48.7457 24.0256 48.4293 28.7156 47.996 31.8981C47.5626 35.3358 46.6985 37.4681 46.6985 37.6143V37.7552C46.1216 39.2042 45.4011 40.6267 44.5077 41.7619C46.5549 40.3395 49.1738 38.0397 51.1918 35.1683V35.1656ZM23.3044 58.0679H33.5937C30.9722 57.0735 27.803 55.223 24.6072 51.788C20.978 47.9222 19.0771 43.4609 18.0667 40.4778C17.0564 37.181 16.7693 34.8785 16.7693 34.7349V34.6206C16.6257 34.0251 16.6257 33.4561 16.6257 32.8871C16.6257 31.8928 16.7693 31.0393 16.9129 30.0423C15.299 33.0254 14.2914 36.0377 13.7144 39.0554C12.417 47.8079 15.5862 52.9525 16.5965 54.2313L17.0564 54.6567L17.6334 55.2549C18.8138 56.789 21.4088 58.0679 23.3097 58.0679H23.3044ZM32.0038 21.7497C38.4006 21.7497 43.5852 26.8385 43.5852 33.1743C43.5852 39.4834 38.4272 44.5988 32.0038 44.5988C25.6069 44.5988 20.4224 39.51 20.4224 33.1743C20.4224 26.8625 25.6069 21.7497 32.0038 21.7497ZM37.8264 33.1743C37.8264 29.9918 35.2049 27.4314 32.0357 27.4314C28.808 27.4314 26.2131 30.0184 26.2131 33.1743C26.2131 36.3568 28.8346 38.8852 32.0357 38.8852C35.2049 38.8852 37.8264 36.3275 37.8264 33.1743Z" fill="white"/>
</g>
</g>
</g>
</svg>
