<svg width="64" height="64" viewBox="0 0 64 64" fill="none" xmlns="http://www.w3.org/2000/svg">
<path d="M53.5011 56C51.989 56 50.6906 55.4712 49.6061 54.4137C48.5369 53.341 48.0023 52.0569 48.0023 50.5612C48.0023 49.0807 48.5369 47.8116 49.6061 46.7541C50.6906 45.6966 51.989 45.1678 53.5011 45.1678C54.9675 45.1678 56.2506 45.6966 57.3503 46.7541C58.4501 47.8116 59 49.0807 59 50.5612C59 51.5583 58.7403 52.4724 58.221 53.3033C57.7169 54.1191 57.0525 54.7763 56.2277 55.2748C55.4028 55.7583 54.494 56 53.5011 56Z" fill="white"/>
<path d="M20.634 55.4108H4V9H20.7715C25.4914 9 29.5544 9.92912 32.9606 11.7874C36.3669 13.6305 38.9865 16.2819 40.8194 19.7416C42.6676 23.2012 43.5918 27.3407 43.5918 32.1601C43.5918 36.9945 42.6676 41.1491 40.8194 44.6239C38.9865 48.0987 36.3516 50.7652 32.9148 52.6234C29.4933 54.4817 25.3997 55.4108 20.634 55.4108ZM13.9209 47.0034H20.2216C23.1543 47.0034 25.6212 46.4897 27.6222 45.4624C29.6384 44.42 31.1506 42.811 32.1587 40.6355C33.1821 38.4449 33.6938 35.6197 33.6938 32.1601C33.6938 28.7306 33.1821 25.9282 32.1587 23.7527C31.1506 21.5771 29.646 19.9757 27.6451 18.9484C25.6441 17.9211 23.1773 17.4074 20.2445 17.4074H13.9209V47.0034Z" fill="white"/>
</svg>
