<svg width="28" height="27" viewBox="0 0 28 27" fill="none" xmlns="http://www.w3.org/2000/svg">
<rect x="0.766571" y="0.266602" width="26.5093" height="26.5093" rx="5.92971" fill="white"/>
<path fill-rule="evenodd" clip-rule="evenodd" d="M16.3094 7.17497C14.414 6.48479 12.309 6.68073 10.5735 7.70889C10.2171 7.92001 10.0994 8.38006 10.3105 8.73643C10.5216 9.0928 10.9817 9.21054 11.338 8.99942C12.6869 8.2003 14.323 8.04801 15.7962 8.58444C17.2694 9.12087 18.4245 10.2895 18.9437 11.7689C19.0809 12.1597 19.5089 12.3653 19.8997 12.2281C20.2906 12.091 20.4962 11.6629 20.359 11.2721C19.691 9.36874 18.2048 7.86515 16.3094 7.17497ZM9.21549 9.83188C9.57174 10.0432 9.68922 10.5033 9.47789 10.8596C9.00001 11.6652 8.74773 12.5845 8.7475 13.5212V15.522C8.7475 15.9362 8.41171 16.272 7.9975 16.272C7.58328 16.272 7.2475 15.9362 7.2475 15.522V13.5212C7.24776 12.3153 7.57255 11.1315 8.1878 10.0943C8.39912 9.73803 8.85924 9.62055 9.21549 9.83188ZM14.75 13.5212C14.75 13.107 14.4142 12.7712 14 12.7712C13.5858 12.7712 13.25 13.107 13.25 13.5212V19.5237C13.25 19.938 13.5858 20.2737 14 20.2737C14.4142 20.2737 14.75 19.938 14.75 19.5237V13.5212ZM20.7525 14.5217C20.7525 14.1075 20.4167 13.7717 20.0025 13.7717C19.5883 13.7717 19.2525 14.1075 19.2525 14.5217V15.5221C19.2525 15.9364 19.5883 16.2721 20.0025 16.2721C20.4167 16.2721 20.7525 15.9364 20.7525 15.5221V14.5217ZM11.4177 10.796C12.1653 10.0864 13.172 9.71572 14.2013 9.77104C14.21 9.7715 14.2187 9.77212 14.2273 9.77289C16.2515 9.95247 17.7907 11.6682 17.7512 13.6989V18.5233C17.7512 18.9375 17.4155 19.2733 17.0012 19.2733C16.587 19.2733 16.2512 18.9375 16.2512 18.5233V13.6913L16.2514 13.6751C16.2782 12.4343 15.342 11.3845 14.1078 11.2682C13.4946 11.2388 12.8958 11.4611 12.4503 11.884C12.0016 12.3098 11.7479 12.9015 11.7487 13.5201L11.7487 13.5212L11.7487 14.5216C11.7487 14.9358 11.413 15.2716 10.9987 15.2716C10.5845 15.2716 10.2487 14.9358 10.2487 14.5216C10.2487 14.5216 10.2093 13.9102 10.2487 13.5217L11.4177 10.796ZM11.7487 17.5229C11.7487 17.1087 11.413 16.7729 10.9987 16.7729C10.5845 16.7729 10.2487 17.1087 10.2487 17.5229V18.5234C10.2487 18.9376 10.5845 19.2734 10.9987 19.2734C11.413 19.2734 11.7487 18.9376 11.7487 18.5234V17.5229Z" fill="url(#paint0_linear_57_5278)"/>
<path fill-rule="evenodd" clip-rule="evenodd" d="M16.3094 7.17497C14.414 6.48479 12.309 6.68073 10.5735 7.70889C10.2171 7.92001 10.0994 8.38006 10.3105 8.73643C10.5216 9.0928 10.9817 9.21054 11.338 8.99942C12.6869 8.2003 14.323 8.04801 15.7962 8.58444C17.2694 9.12087 18.4245 10.2895 18.9437 11.7689C19.0809 12.1597 19.5089 12.3653 19.8997 12.2281C20.2906 12.091 20.4962 11.6629 20.359 11.2721C19.691 9.36874 18.2048 7.86515 16.3094 7.17497ZM9.21549 9.83188C9.57174 10.0432 9.68922 10.5033 9.47789 10.8596C9.00001 11.6652 8.74773 12.5845 8.7475 13.5212V15.522C8.7475 15.9362 8.41171 16.272 7.9975 16.272C7.58328 16.272 7.2475 15.9362 7.2475 15.522V13.5212C7.24776 12.3153 7.57255 11.1315 8.1878 10.0943C8.39912 9.73803 8.85924 9.62055 9.21549 9.83188ZM14.75 13.5212C14.75 13.107 14.4142 12.7712 14 12.7712C13.5858 12.7712 13.25 13.107 13.25 13.5212V19.5237C13.25 19.938 13.5858 20.2737 14 20.2737C14.4142 20.2737 14.75 19.938 14.75 19.5237V13.5212ZM20.7525 14.5217C20.7525 14.1075 20.4167 13.7717 20.0025 13.7717C19.5883 13.7717 19.2525 14.1075 19.2525 14.5217V15.5221C19.2525 15.9364 19.5883 16.2721 20.0025 16.2721C20.4167 16.2721 20.7525 15.9364 20.7525 15.5221V14.5217ZM11.4177 10.796C12.1653 10.0864 13.172 9.71572 14.2013 9.77104C14.21 9.7715 14.2187 9.77212 14.2273 9.77289C16.2515 9.95247 17.7907 11.6682 17.7512 13.6989V18.5233C17.7512 18.9375 17.4155 19.2733 17.0012 19.2733C16.587 19.2733 16.2512 18.9375 16.2512 18.5233V13.6913L16.2514 13.6751C16.2782 12.4343 15.342 11.3845 14.1078 11.2682C13.4946 11.2388 12.8958 11.4611 12.4503 11.884C12.0016 12.3098 11.7479 12.9015 11.7487 13.5201L11.7487 13.5212L11.7487 14.5216C11.7487 14.9358 11.413 15.2716 10.9987 15.2716C10.5845 15.2716 10.2487 14.9358 10.2487 14.5216C10.2487 14.5216 10.2093 13.9102 10.2487 13.5217L11.4177 10.796ZM11.7487 17.5229C11.7487 17.1087 11.413 16.7729 10.9987 16.7729C10.5845 16.7729 10.2487 17.1087 10.2487 17.5229V18.5234C10.2487 18.9376 10.5845 19.2734 10.9987 19.2734C11.413 19.2734 11.7487 18.9376 11.7487 18.5234V17.5229Z" fill="url(#paint1_linear_57_5278)"/>
<defs>
<linearGradient id="paint0_linear_57_5278" x1="14" y1="6.76855" x2="14" y2="20.2737" gradientUnits="userSpaceOnUse">
<stop stop-color="#FFE81F"/>
<stop offset="1" stop-color="#FE3C00"/>
</linearGradient>
<linearGradient id="paint1_linear_57_5278" x1="15.9875" y1="3.24163" x2="7.14698" y2="8.30237" gradientUnits="userSpaceOnUse">
<stop stop-color="#FF6AE7"/>
<stop offset="1" stop-color="#FF6AE7" stop-opacity="0"/>
</linearGradient>
</defs>
</svg>
