<svg width="76" height="112" viewBox="0 0 76 112" fill="none" xmlns="http://www.w3.org/2000/svg">
<g filter="url(#filter0_ddddd_57_5629)">
<path d="M63.41 54.5901L60 51.2101C61.0249 49.5511 61.4591 47.5944 61.2322 45.6575C61.0053 43.7207 60.1306 41.9174 58.75 40.5401C57.535 39.3448 55.9946 38.5342 54.3214 38.2095C52.6482 37.8849 50.9164 38.0606 49.3426 38.7147C47.7687 39.3688 46.4225 40.4722 45.4723 41.8872C44.5221 43.3021 44.01 44.9657 44 46.6701C44.0068 48.2087 44.4234 49.7178 45.207 51.0419C45.9905 52.3661 47.1127 53.4576 48.4581 54.2041C49.8035 54.9507 51.3235 55.3253 52.8618 55.2894C54.4 55.2536 55.9009 54.8085 57.21 54.0001L60.59 57.3701C60.9726 57.6978 61.4648 57.869 61.9681 57.8495C62.4715 57.8301 62.9489 57.6214 63.3051 57.2652C63.6613 56.909 63.87 56.4316 63.8894 55.9282C63.9089 55.4249 63.7377 54.9327 63.41 54.5501V54.5901ZM49.37 50.0001C48.7205 49.3456 48.2793 48.5134 48.1021 47.6085C47.9248 46.7036 48.0194 45.7665 48.374 44.9153C48.7285 44.0641 49.3271 43.3368 50.0943 42.8253C50.8614 42.3138 51.7629 42.0408 52.685 42.0408C53.6071 42.0408 54.5085 42.3138 55.2757 42.8253C56.0429 43.3368 56.6415 44.0641 56.996 44.9153C57.3506 45.7665 57.4452 46.7036 57.2679 47.6085C57.0906 48.5134 56.6495 49.3456 56 50.0001C55.5659 50.4376 55.0495 50.7849 54.4805 51.0218C53.9116 51.2588 53.3013 51.3808 52.685 51.3808C52.0687 51.3808 51.4584 51.2588 50.8895 51.0218C50.3205 50.7849 49.8041 50.4376 49.37 50.0001ZM51.15 32.7001H59.33C59.8604 32.7001 60.3691 32.4894 60.7442 32.1143C61.1193 31.7393 61.33 31.2305 61.33 30.7001C61.337 26.5185 60.2805 22.4037 58.2599 18.7427C56.2393 15.0817 53.3209 11.9946 49.779 9.7717C46.2372 7.54879 42.1882 6.26305 38.0128 6.03537C33.8373 5.80768 29.6726 6.64551 25.91 8.47011C25.7438 8.52983 25.5858 8.61048 25.44 8.71011C19.6793 11.6502 15.3056 16.7373 13.2626 22.8737C11.2196 29.0101 11.6713 35.7037 14.52 41.5101C14.52 41.5601 14.57 41.6101 14.6 41.6701C16.6479 45.7714 19.7972 49.2216 23.6952 51.6342C27.5932 54.0468 32.0858 55.3265 36.67 55.3301C37.2004 55.3301 37.7091 55.1194 38.0842 54.7443C38.4593 54.3693 38.67 53.8605 38.67 53.3301C38.67 52.7997 38.4593 52.291 38.0842 51.9159C37.7091 51.5408 37.2004 51.3301 36.67 51.3301C33.3897 51.33 30.1567 50.5469 27.2399 49.0459C24.3231 47.5449 21.8068 45.3694 19.9 42.7001C25.52 42.4701 31.11 41.1401 31.11 33.1901C31.11 29.9801 32.79 28.6201 34.72 27.0301C36.65 25.4401 38.72 23.8201 38.72 20.6001C38.72 16.4401 35.02 14.7001 32.32 13.4301C31.1073 12.9849 29.9832 12.3281 29 11.4901C32.2418 10.1832 35.7641 9.72782 39.2316 10.1672C42.6992 10.6065 45.9966 11.926 48.81 14.0001L44.81 18.5301C43.7213 19.7564 43.01 21.271 42.7618 22.892C42.5136 24.5129 42.739 26.171 43.4109 27.6668C44.0827 29.1627 45.1725 30.4326 46.549 31.3237C47.9255 32.2149 49.5302 32.6894 51.17 32.6901L51.15 32.7001ZM30.57 17.0501C33.35 18.3601 34.67 19.1401 34.67 20.6001C34.67 21.8601 33.82 22.6001 32.19 23.9401C30.05 25.6901 27.11 28.0901 27.11 33.1901C27.11 37.5601 25.38 38.6501 17.64 38.7401C15.7448 34.2722 15.4838 29.2796 16.9029 24.6384C18.3219 19.9973 21.3303 16.0042 25.4 13.3601C26.55 15.1601 28.71 16.1801 30.57 17.0501ZM47.78 21.1701L51.78 16.6401C54.8607 19.9339 56.7693 24.1517 57.21 28.6401H51.15C50.2818 28.6389 49.4324 28.3871 48.7039 27.915C47.9753 27.4429 47.3984 26.7705 47.0426 25.9786C46.6868 25.1867 46.5671 24.3089 46.6979 23.4506C46.8287 22.5923 47.2044 21.7901 47.78 21.1401V21.1701Z" fill="url(#paint0_linear_57_5629)"/>
<path d="M63.41 54.5901L60 51.2101C61.0249 49.5511 61.4591 47.5944 61.2322 45.6575C61.0053 43.7207 60.1306 41.9174 58.75 40.5401C57.535 39.3448 55.9946 38.5342 54.3214 38.2095C52.6482 37.8849 50.9164 38.0606 49.3426 38.7147C47.7687 39.3688 46.4225 40.4722 45.4723 41.8872C44.5221 43.3021 44.01 44.9657 44 46.6701C44.0068 48.2087 44.4234 49.7178 45.207 51.0419C45.9905 52.3661 47.1127 53.4576 48.4581 54.2041C49.8035 54.9507 51.3235 55.3253 52.8618 55.2894C54.4 55.2536 55.9009 54.8085 57.21 54.0001L60.59 57.3701C60.9726 57.6978 61.4648 57.869 61.9681 57.8495C62.4715 57.8301 62.9489 57.6214 63.3051 57.2652C63.6613 56.909 63.87 56.4316 63.8894 55.9282C63.9089 55.4249 63.7377 54.9327 63.41 54.5501V54.5901ZM49.37 50.0001C48.7205 49.3456 48.2793 48.5134 48.1021 47.6085C47.9248 46.7036 48.0194 45.7665 48.374 44.9153C48.7285 44.0641 49.3271 43.3368 50.0943 42.8253C50.8614 42.3138 51.7629 42.0408 52.685 42.0408C53.6071 42.0408 54.5085 42.3138 55.2757 42.8253C56.0429 43.3368 56.6415 44.0641 56.996 44.9153C57.3506 45.7665 57.4452 46.7036 57.2679 47.6085C57.0906 48.5134 56.6495 49.3456 56 50.0001C55.5659 50.4376 55.0495 50.7849 54.4805 51.0218C53.9116 51.2588 53.3013 51.3808 52.685 51.3808C52.0687 51.3808 51.4584 51.2588 50.8895 51.0218C50.3205 50.7849 49.8041 50.4376 49.37 50.0001ZM51.15 32.7001H59.33C59.8604 32.7001 60.3691 32.4894 60.7442 32.1143C61.1193 31.7393 61.33 31.2305 61.33 30.7001C61.337 26.5185 60.2805 22.4037 58.2599 18.7427C56.2393 15.0817 53.3209 11.9946 49.779 9.7717C46.2372 7.54879 42.1882 6.26305 38.0128 6.03537C33.8373 5.80768 29.6726 6.64551 25.91 8.47011C25.7438 8.52983 25.5858 8.61048 25.44 8.71011C19.6793 11.6502 15.3056 16.7373 13.2626 22.8737C11.2196 29.0101 11.6713 35.7037 14.52 41.5101C14.52 41.5601 14.57 41.6101 14.6 41.6701C16.6479 45.7714 19.7972 49.2216 23.6952 51.6342C27.5932 54.0468 32.0858 55.3265 36.67 55.3301C37.2004 55.3301 37.7091 55.1194 38.0842 54.7443C38.4593 54.3693 38.67 53.8605 38.67 53.3301C38.67 52.7997 38.4593 52.291 38.0842 51.9159C37.7091 51.5408 37.2004 51.3301 36.67 51.3301C33.3897 51.33 30.1567 50.5469 27.2399 49.0459C24.3231 47.5449 21.8068 45.3694 19.9 42.7001C25.52 42.4701 31.11 41.1401 31.11 33.1901C31.11 29.9801 32.79 28.6201 34.72 27.0301C36.65 25.4401 38.72 23.8201 38.72 20.6001C38.72 16.4401 35.02 14.7001 32.32 13.4301C31.1073 12.9849 29.9832 12.3281 29 11.4901C32.2418 10.1832 35.7641 9.72782 39.2316 10.1672C42.6992 10.6065 45.9966 11.926 48.81 14.0001L44.81 18.5301C43.7213 19.7564 43.01 21.271 42.7618 22.892C42.5136 24.5129 42.739 26.171 43.4109 27.6668C44.0827 29.1627 45.1725 30.4326 46.549 31.3237C47.9255 32.2149 49.5302 32.6894 51.17 32.6901L51.15 32.7001ZM30.57 17.0501C33.35 18.3601 34.67 19.1401 34.67 20.6001C34.67 21.8601 33.82 22.6001 32.19 23.9401C30.05 25.6901 27.11 28.0901 27.11 33.1901C27.11 37.5601 25.38 38.6501 17.64 38.7401C15.7448 34.2722 15.4838 29.2796 16.9029 24.6384C18.3219 19.9973 21.3303 16.0042 25.4 13.3601C26.55 15.1601 28.71 16.1801 30.57 17.0501ZM47.78 21.1701L51.78 16.6401C54.8607 19.9339 56.7693 24.1517 57.21 28.6401H51.15C50.2818 28.6389 49.4324 28.3871 48.7039 27.915C47.9753 27.4429 47.3984 26.7705 47.0426 25.9786C46.6868 25.1867 46.5671 24.3089 46.6979 23.4506C46.8287 22.5923 47.2044 21.7901 47.78 21.1401V21.1701Z" fill="url(#paint1_linear_57_5629)"/>
</g>
<defs>
<filter id="filter0_ddddd_57_5629" x="0.00100946" y="3.99878" width="75.8899" height="109.852" filterUnits="userSpaceOnUse" color-interpolation-filters="sRGB">
<feFlood flood-opacity="0" result="BackgroundImageFix"/>
<feColorMatrix in="SourceAlpha" type="matrix" values="0 0 0 0 0 0 0 0 0 0 0 0 0 0 0 0 0 0 127 0" result="hardAlpha"/>
<feOffset dy="2"/>
<feGaussianBlur stdDeviation="2"/>
<feColorMatrix type="matrix" values="0 0 0 0 0.996078 0 0 0 0 0.235294 0 0 0 0 0 0 0 0 0.39 0"/>
<feBlend mode="normal" in2="BackgroundImageFix" result="effect1_dropShadow_57_5629"/>
<feColorMatrix in="SourceAlpha" type="matrix" values="0 0 0 0 0 0 0 0 0 0 0 0 0 0 0 0 0 0 127 0" result="hardAlpha"/>
<feOffset dy="7"/>
<feGaussianBlur stdDeviation="3.5"/>
<feColorMatrix type="matrix" values="0 0 0 0 0.996078 0 0 0 0 0.235294 0 0 0 0 0 0 0 0 0.34 0"/>
<feBlend mode="normal" in2="effect1_dropShadow_57_5629" result="effect2_dropShadow_57_5629"/>
<feColorMatrix in="SourceAlpha" type="matrix" values="0 0 0 0 0 0 0 0 0 0 0 0 0 0 0 0 0 0 127 0" result="hardAlpha"/>
<feOffset dy="16"/>
<feGaussianBlur stdDeviation="5"/>
<feColorMatrix type="matrix" values="0 0 0 0 0.996078 0 0 0 0 0.235294 0 0 0 0 0 0 0 0 0.2 0"/>
<feBlend mode="normal" in2="effect2_dropShadow_57_5629" result="effect3_dropShadow_57_5629"/>
<feColorMatrix in="SourceAlpha" type="matrix" values="0 0 0 0 0 0 0 0 0 0 0 0 0 0 0 0 0 0 127 0" result="hardAlpha"/>
<feOffset dy="28"/>
<feGaussianBlur stdDeviation="5.5"/>
<feColorMatrix type="matrix" values="0 0 0 0 0.996078 0 0 0 0 0.235294 0 0 0 0 0 0 0 0 0.06 0"/>
<feBlend mode="normal" in2="effect3_dropShadow_57_5629" result="effect4_dropShadow_57_5629"/>
<feColorMatrix in="SourceAlpha" type="matrix" values="0 0 0 0 0 0 0 0 0 0 0 0 0 0 0 0 0 0 127 0" result="hardAlpha"/>
<feOffset dy="44"/>
<feGaussianBlur stdDeviation="6"/>
<feColorMatrix type="matrix" values="0 0 0 0 0.996078 0 0 0 0 0.235294 0 0 0 0 0 0 0 0 0.01 0"/>
<feBlend mode="normal" in2="effect4_dropShadow_57_5629" result="effect5_dropShadow_57_5629"/>
<feBlend mode="normal" in="SourceGraphic" in2="effect5_dropShadow_57_5629" result="shape"/>
</filter>
<linearGradient id="paint0_linear_57_5629" x1="37.946" y1="5.99878" x2="37.946" y2="57.851" gradientUnits="userSpaceOnUse">
<stop stop-color="#FFE81F"/>
<stop offset="1" stop-color="#FE3C00"/>
</linearGradient>
<linearGradient id="paint1_linear_57_5629" x1="45.5824" y1="-7.54261" x2="11.6272" y2="11.9094" gradientUnits="userSpaceOnUse">
<stop stop-color="#FF6AE7"/>
<stop offset="1" stop-color="#FF6AE7" stop-opacity="0"/>
</linearGradient>
</defs>
</svg>
