<svg width="83" height="112" viewBox="0 0 83 112" fill="none" xmlns="http://www.w3.org/2000/svg">
<g filter="url(#filter0_ddddd_57_5638)">
<path d="M44 6.00004C37.1044 6.00004 30.4912 8.73932 25.6152 13.6153C20.7393 18.4912 18 25.1044 18 32C18 32.4 18 32.8 18 33.21L15.41 30.59C15.0274 30.2624 14.5352 30.0912 14.0319 30.1106C13.5285 30.1301 13.051 30.3387 12.6949 30.6949C12.3387 31.0511 12.13 31.5286 12.1106 32.0319C12.0911 32.5353 12.2623 33.0274 12.59 33.41L18.59 39.41C18.9647 39.7825 19.4716 39.9916 20 39.9916C20.5284 39.9916 21.0353 39.7825 21.41 39.41L27.41 33.41C27.7376 33.0274 27.9088 32.5353 27.8894 32.0319C27.87 31.5286 27.6613 31.0511 27.3051 30.6949C26.9489 30.3387 26.4714 30.1301 25.9681 30.1106C25.4647 30.0912 24.9726 30.2624 24.59 30.59L22 33.14C22 32.76 22 32.38 22 32C21.9882 26.7448 23.8581 21.6589 27.2712 17.6628C30.6843 13.6667 35.4151 11.0243 40.6076 10.214C45.8 9.40361 51.111 10.4788 55.5794 13.2448C60.0479 16.0109 63.3785 20.2852 64.9687 25.2941C66.5588 30.3031 66.3034 35.7158 64.2486 40.5527C62.1938 45.3896 58.4754 49.3312 53.7664 51.6642C49.0573 53.9972 43.6686 54.5674 38.5756 53.2717C33.4826 51.9759 29.0216 48.8998 26 44.6C25.6826 44.2025 25.2257 43.9408 24.7221 43.8683C24.2186 43.7957 23.7064 43.9178 23.2897 44.2096C22.873 44.5014 22.5832 44.941 22.4792 45.439C22.3752 45.937 22.4649 46.4559 22.73 46.89C25.2904 50.5551 28.7527 53.498 32.7824 55.4345C36.8121 57.371 41.2731 58.2357 45.7345 57.945C50.1959 57.6543 54.507 56.2181 58.2513 53.775C61.9957 51.332 65.0468 47.9647 67.11 43.9984C69.1732 40.032 70.1787 35.6007 70.0295 31.1323C69.8803 26.6639 68.5814 22.3095 66.2582 18.4897C63.935 14.6698 60.6661 11.5135 56.7671 9.32572C52.8681 7.13791 48.4708 5.99247 44 6.00004Z" fill="url(#paint0_linear_57_5638)"/>
<path d="M44 6.00004C37.1044 6.00004 30.4912 8.73932 25.6152 13.6153C20.7393 18.4912 18 25.1044 18 32C18 32.4 18 32.8 18 33.21L15.41 30.59C15.0274 30.2624 14.5352 30.0912 14.0319 30.1106C13.5285 30.1301 13.051 30.3387 12.6949 30.6949C12.3387 31.0511 12.13 31.5286 12.1106 32.0319C12.0911 32.5353 12.2623 33.0274 12.59 33.41L18.59 39.41C18.9647 39.7825 19.4716 39.9916 20 39.9916C20.5284 39.9916 21.0353 39.7825 21.41 39.41L27.41 33.41C27.7376 33.0274 27.9088 32.5353 27.8894 32.0319C27.87 31.5286 27.6613 31.0511 27.3051 30.6949C26.9489 30.3387 26.4714 30.1301 25.9681 30.1106C25.4647 30.0912 24.9726 30.2624 24.59 30.59L22 33.14C22 32.76 22 32.38 22 32C21.9882 26.7448 23.8581 21.6589 27.2712 17.6628C30.6843 13.6667 35.4151 11.0243 40.6076 10.214C45.8 9.40361 51.111 10.4788 55.5794 13.2448C60.0479 16.0109 63.3785 20.2852 64.9687 25.2941C66.5588 30.3031 66.3034 35.7158 64.2486 40.5527C62.1938 45.3896 58.4754 49.3312 53.7664 51.6642C49.0573 53.9972 43.6686 54.5674 38.5756 53.2717C33.4826 51.9759 29.0216 48.8998 26 44.6C25.6826 44.2025 25.2257 43.9408 24.7221 43.8683C24.2186 43.7957 23.7064 43.9178 23.2897 44.2096C22.873 44.5014 22.5832 44.941 22.4792 45.439C22.3752 45.937 22.4649 46.4559 22.73 46.89C25.2904 50.5551 28.7527 53.498 32.7824 55.4345C36.8121 57.371 41.2731 58.2357 45.7345 57.945C50.1959 57.6543 54.507 56.2181 58.2513 53.775C61.9957 51.332 65.0468 47.9647 67.11 43.9984C69.1732 40.032 70.1787 35.6007 70.0295 31.1323C69.8803 26.6639 68.5814 22.3095 66.2582 18.4897C63.935 14.6698 60.6661 11.5135 56.7671 9.32572C52.8681 7.13791 48.4708 5.99247 44 6.00004Z" fill="url(#paint1_linear_57_5638)"/>
<path d="M43.25 19.29C42.7196 19.29 42.2108 19.5008 41.8358 19.8758C41.4607 20.2509 41.25 20.7596 41.25 21.29V33.86C41.2521 34.2091 41.3455 34.5515 41.5209 34.8532C41.6964 35.1549 41.9477 35.4055 42.25 35.58L52 41.38C52.3028 41.5598 52.6478 41.6564 53 41.66C53.4365 41.6556 53.8595 41.5085 54.2045 41.2411C54.5496 40.9738 54.7977 40.6009 54.911 40.1793C55.0243 39.7578 54.9966 39.3108 54.8321 38.9065C54.6676 38.5021 54.3754 38.1627 54 37.94L45.24 32.72V21.29C45.24 20.7613 45.0307 20.2541 44.6577 19.8793C44.2848 19.5046 43.7787 19.2927 43.25 19.29Z" fill="url(#paint2_linear_57_5638)"/>
<path d="M43.25 19.29C42.7196 19.29 42.2108 19.5008 41.8358 19.8758C41.4607 20.2509 41.25 20.7596 41.25 21.29V33.86C41.2521 34.2091 41.3455 34.5515 41.5209 34.8532C41.6964 35.1549 41.9477 35.4055 42.25 35.58L52 41.38C52.3028 41.5598 52.6478 41.6564 53 41.66C53.4365 41.6556 53.8595 41.5085 54.2045 41.2411C54.5496 40.9738 54.7977 40.6009 54.911 40.1793C55.0243 39.7578 54.9966 39.3108 54.8321 38.9065C54.6676 38.5021 54.3754 38.1627 54 37.94L45.24 32.72V21.29C45.24 20.7613 45.0307 20.2541 44.6577 19.8793C44.2848 19.5046 43.7787 19.2927 43.25 19.29Z" fill="url(#paint3_linear_57_5638)"/>
</g>
<defs>
<filter id="filter0_ddddd_57_5638" x="0.10907" y="4" width="81.9349" height="110" filterUnits="userSpaceOnUse" color-interpolation-filters="sRGB">
<feFlood flood-opacity="0" result="BackgroundImageFix"/>
<feColorMatrix in="SourceAlpha" type="matrix" values="0 0 0 0 0 0 0 0 0 0 0 0 0 0 0 0 0 0 127 0" result="hardAlpha"/>
<feOffset dy="2"/>
<feGaussianBlur stdDeviation="2"/>
<feColorMatrix type="matrix" values="0 0 0 0 0.996078 0 0 0 0 0.235294 0 0 0 0 0 0 0 0 0.39 0"/>
<feBlend mode="normal" in2="BackgroundImageFix" result="effect1_dropShadow_57_5638"/>
<feColorMatrix in="SourceAlpha" type="matrix" values="0 0 0 0 0 0 0 0 0 0 0 0 0 0 0 0 0 0 127 0" result="hardAlpha"/>
<feOffset dy="7"/>
<feGaussianBlur stdDeviation="3.5"/>
<feColorMatrix type="matrix" values="0 0 0 0 0.996078 0 0 0 0 0.235294 0 0 0 0 0 0 0 0 0.34 0"/>
<feBlend mode="normal" in2="effect1_dropShadow_57_5638" result="effect2_dropShadow_57_5638"/>
<feColorMatrix in="SourceAlpha" type="matrix" values="0 0 0 0 0 0 0 0 0 0 0 0 0 0 0 0 0 0 127 0" result="hardAlpha"/>
<feOffset dy="16"/>
<feGaussianBlur stdDeviation="5"/>
<feColorMatrix type="matrix" values="0 0 0 0 0.996078 0 0 0 0 0.235294 0 0 0 0 0 0 0 0 0.2 0"/>
<feBlend mode="normal" in2="effect2_dropShadow_57_5638" result="effect3_dropShadow_57_5638"/>
<feColorMatrix in="SourceAlpha" type="matrix" values="0 0 0 0 0 0 0 0 0 0 0 0 0 0 0 0 0 0 127 0" result="hardAlpha"/>
<feOffset dy="28"/>
<feGaussianBlur stdDeviation="5.5"/>
<feColorMatrix type="matrix" values="0 0 0 0 0.996078 0 0 0 0 0.235294 0 0 0 0 0 0 0 0 0.06 0"/>
<feBlend mode="normal" in2="effect3_dropShadow_57_5638" result="effect4_dropShadow_57_5638"/>
<feColorMatrix in="SourceAlpha" type="matrix" values="0 0 0 0 0 0 0 0 0 0 0 0 0 0 0 0 0 0 127 0" result="hardAlpha"/>
<feOffset dy="44"/>
<feGaussianBlur stdDeviation="6"/>
<feColorMatrix type="matrix" values="0 0 0 0 0.996078 0 0 0 0 0.235294 0 0 0 0 0 0 0 0 0.01 0"/>
<feBlend mode="normal" in2="effect4_dropShadow_57_5638" result="effect5_dropShadow_57_5638"/>
<feBlend mode="normal" in="SourceGraphic" in2="effect5_dropShadow_57_5638" result="shape"/>
</filter>
<linearGradient id="paint0_linear_57_5638" x1="41.0765" y1="6" x2="41.0765" y2="58" gradientUnits="userSpaceOnUse">
<stop stop-color="#FFE81F"/>
<stop offset="1" stop-color="#FE3C00"/>
</linearGradient>
<linearGradient id="paint1_linear_57_5638" x1="49.6026" y1="-7.57998" x2="13.8098" y2="15.2484" gradientUnits="userSpaceOnUse">
<stop stop-color="#FF6AE7"/>
<stop offset="1" stop-color="#FF6AE7" stop-opacity="0"/>
</linearGradient>
<linearGradient id="paint2_linear_57_5638" x1="41.0765" y1="6" x2="41.0765" y2="58" gradientUnits="userSpaceOnUse">
<stop stop-color="#FFE81F"/>
<stop offset="1" stop-color="#FE3C00"/>
</linearGradient>
<linearGradient id="paint3_linear_57_5638" x1="49.6026" y1="-7.57998" x2="13.8098" y2="15.2484" gradientUnits="userSpaceOnUse">
<stop stop-color="#FF6AE7"/>
<stop offset="1" stop-color="#FF6AE7" stop-opacity="0"/>
</linearGradient>
</defs>
</svg>
