<svg width="82" height="112" viewBox="0 0 82 112" fill="none" xmlns="http://www.w3.org/2000/svg">
<g filter="url(#filter0_ddddd_57_5406)">
<path d="M64 19.62V13.33C63.9974 11.3868 63.2242 9.5239 61.8502 8.14983C60.4761 6.77576 58.6132 6.00265 56.67 6L22 6C20.0568 6.00265 18.1939 6.77576 16.8198 8.14983C15.4458 9.5239 14.6726 11.3868 14.67 13.33V41.13C13.875 41.5081 13.2027 42.1027 12.7304 42.8457C12.2581 43.5886 12.005 44.4497 12 45.33V48C12.0026 49.2378 12.4955 50.424 13.3707 51.2993C14.246 52.1745 15.4323 52.6674 16.67 52.67H43.95C44.3857 54.1946 45.3028 55.5375 46.5644 56.4981C47.826 57.4587 49.3644 57.9855 50.95 58H61.95C63.895 58 65.7604 57.2281 67.1366 55.8537C68.5129 54.4793 69.2873 52.615 69.29 50.67V26.67C69.2904 25.0806 68.775 23.5339 67.821 22.2626C66.867 20.9912 65.5262 20.0639 64 19.62ZM22 10H56.67C57.5524 10.0026 58.3978 10.3543 59.0218 10.9782C59.6457 11.6022 59.9974 12.4476 60 13.33V19.33H51C49.055 19.3327 47.1907 20.1071 45.8163 21.4834C44.4419 22.8596 43.67 24.725 43.67 26.67V40.67H18.67V13.33C18.6726 12.4476 19.0243 11.6022 19.6482 10.9782C20.2722 10.3543 21.1176 10.0026 22 10ZM16 48V45.33C16.0026 45.154 16.0744 44.9862 16.1997 44.8627C16.3251 44.7392 16.494 44.67 16.67 44.67H43.67V48.67H16.67C16.4923 48.67 16.3219 48.5994 16.1962 48.4738C16.0706 48.3481 16 48.1777 16 48ZM65.34 50.67C65.3373 51.5541 64.9843 52.4011 64.3582 53.0253C63.7321 53.6495 62.8841 54 62 54H51C50.1176 53.9974 49.2722 53.6457 48.6482 53.0218C48.0243 52.3978 47.6726 51.5524 47.67 50.67V26.67C47.67 25.7859 48.0205 24.9379 48.6447 24.3118C49.2689 23.6857 50.1159 23.3326 51 23.33H62C62.885 23.3326 63.733 23.6854 64.3588 24.3112C64.9846 24.937 65.3374 25.785 65.34 26.67V50.67ZM60.83 50C60.83 50.5304 60.6193 51.0391 60.2442 51.4142C59.8691 51.7893 59.3604 52 58.83 52H54.16C53.6296 52 53.1209 51.7893 52.7458 51.4142C52.3707 51.0391 52.16 50.5304 52.16 50C52.16 49.4696 52.3707 48.9609 52.7458 48.5858C53.1209 48.2107 53.6296 48 54.16 48H58.83C59.3604 48 59.8691 48.2107 60.2442 48.5858C60.6193 48.9609 60.83 49.4696 60.83 50Z" fill="url(#paint0_linear_57_5406)"/>
<path d="M64 19.62V13.33C63.9974 11.3868 63.2242 9.5239 61.8502 8.14983C60.4761 6.77576 58.6132 6.00265 56.67 6L22 6C20.0568 6.00265 18.1939 6.77576 16.8198 8.14983C15.4458 9.5239 14.6726 11.3868 14.67 13.33V41.13C13.875 41.5081 13.2027 42.1027 12.7304 42.8457C12.2581 43.5886 12.005 44.4497 12 45.33V48C12.0026 49.2378 12.4955 50.424 13.3707 51.2993C14.246 52.1745 15.4323 52.6674 16.67 52.67H43.95C44.3857 54.1946 45.3028 55.5375 46.5644 56.4981C47.826 57.4587 49.3644 57.9855 50.95 58H61.95C63.895 58 65.7604 57.2281 67.1366 55.8537C68.5129 54.4793 69.2873 52.615 69.29 50.67V26.67C69.2904 25.0806 68.775 23.5339 67.821 22.2626C66.867 20.9912 65.5262 20.0639 64 19.62ZM22 10H56.67C57.5524 10.0026 58.3978 10.3543 59.0218 10.9782C59.6457 11.6022 59.9974 12.4476 60 13.33V19.33H51C49.055 19.3327 47.1907 20.1071 45.8163 21.4834C44.4419 22.8596 43.67 24.725 43.67 26.67V40.67H18.67V13.33C18.6726 12.4476 19.0243 11.6022 19.6482 10.9782C20.2722 10.3543 21.1176 10.0026 22 10ZM16 48V45.33C16.0026 45.154 16.0744 44.9862 16.1997 44.8627C16.3251 44.7392 16.494 44.67 16.67 44.67H43.67V48.67H16.67C16.4923 48.67 16.3219 48.5994 16.1962 48.4738C16.0706 48.3481 16 48.1777 16 48ZM65.34 50.67C65.3373 51.5541 64.9843 52.4011 64.3582 53.0253C63.7321 53.6495 62.8841 54 62 54H51C50.1176 53.9974 49.2722 53.6457 48.6482 53.0218C48.0243 52.3978 47.6726 51.5524 47.67 50.67V26.67C47.67 25.7859 48.0205 24.9379 48.6447 24.3118C49.2689 23.6857 50.1159 23.3326 51 23.33H62C62.885 23.3326 63.733 23.6854 64.3588 24.3112C64.9846 24.937 65.3374 25.785 65.34 26.67V50.67ZM60.83 50C60.83 50.5304 60.6193 51.0391 60.2442 51.4142C59.8691 51.7893 59.3604 52 58.83 52H54.16C53.6296 52 53.1209 51.7893 52.7458 51.4142C52.3707 51.0391 52.16 50.5304 52.16 50C52.16 49.4696 52.3707 48.9609 52.7458 48.5858C53.1209 48.2107 53.6296 48 54.16 48H58.83C59.3604 48 59.8691 48.2107 60.2442 48.5858C60.6193 48.9609 60.83 49.4696 60.83 50Z" fill="url(#paint1_linear_57_5406)"/>
</g>
<defs>
<filter id="filter0_ddddd_57_5406" x="0" y="4" width="81.29" height="110" filterUnits="userSpaceOnUse" color-interpolation-filters="sRGB">
<feFlood flood-opacity="0" result="BackgroundImageFix"/>
<feColorMatrix in="SourceAlpha" type="matrix" values="0 0 0 0 0 0 0 0 0 0 0 0 0 0 0 0 0 0 127 0" result="hardAlpha"/>
<feOffset dy="2"/>
<feGaussianBlur stdDeviation="2"/>
<feColorMatrix type="matrix" values="0 0 0 0 0.996078 0 0 0 0 0.235294 0 0 0 0 0 0 0 0 0.39 0"/>
<feBlend mode="normal" in2="BackgroundImageFix" result="effect1_dropShadow_57_5406"/>
<feColorMatrix in="SourceAlpha" type="matrix" values="0 0 0 0 0 0 0 0 0 0 0 0 0 0 0 0 0 0 127 0" result="hardAlpha"/>
<feOffset dy="7"/>
<feGaussianBlur stdDeviation="3.5"/>
<feColorMatrix type="matrix" values="0 0 0 0 0.996078 0 0 0 0 0.235294 0 0 0 0 0 0 0 0 0.34 0"/>
<feBlend mode="normal" in2="effect1_dropShadow_57_5406" result="effect2_dropShadow_57_5406"/>
<feColorMatrix in="SourceAlpha" type="matrix" values="0 0 0 0 0 0 0 0 0 0 0 0 0 0 0 0 0 0 127 0" result="hardAlpha"/>
<feOffset dy="16"/>
<feGaussianBlur stdDeviation="5"/>
<feColorMatrix type="matrix" values="0 0 0 0 0.996078 0 0 0 0 0.235294 0 0 0 0 0 0 0 0 0.2 0"/>
<feBlend mode="normal" in2="effect2_dropShadow_57_5406" result="effect3_dropShadow_57_5406"/>
<feColorMatrix in="SourceAlpha" type="matrix" values="0 0 0 0 0 0 0 0 0 0 0 0 0 0 0 0 0 0 127 0" result="hardAlpha"/>
<feOffset dy="28"/>
<feGaussianBlur stdDeviation="5.5"/>
<feColorMatrix type="matrix" values="0 0 0 0 0.996078 0 0 0 0 0.235294 0 0 0 0 0 0 0 0 0.06 0"/>
<feBlend mode="normal" in2="effect3_dropShadow_57_5406" result="effect4_dropShadow_57_5406"/>
<feColorMatrix in="SourceAlpha" type="matrix" values="0 0 0 0 0 0 0 0 0 0 0 0 0 0 0 0 0 0 127 0" result="hardAlpha"/>
<feOffset dy="44"/>
<feGaussianBlur stdDeviation="6"/>
<feColorMatrix type="matrix" values="0 0 0 0 0.996078 0 0 0 0 0.235294 0 0 0 0 0 0 0 0 0.01 0"/>
<feBlend mode="normal" in2="effect4_dropShadow_57_5406" result="effect5_dropShadow_57_5406"/>
<feBlend mode="normal" in="SourceGraphic" in2="effect5_dropShadow_57_5406" result="shape"/>
</filter>
<linearGradient id="paint0_linear_57_5406" x1="40.645" y1="6" x2="40.645" y2="58" gradientUnits="userSpaceOnUse">
<stop stop-color="#FFE81F"/>
<stop offset="1" stop-color="#FE3C00"/>
</linearGradient>
<linearGradient id="paint1_linear_57_5406" x1="49.0761" y1="-7.57998" x2="13.4538" y2="14.8869" gradientUnits="userSpaceOnUse">
<stop stop-color="#FF6AE7"/>
<stop offset="1" stop-color="#FF6AE7" stop-opacity="0"/>
</linearGradient>
</defs>
</svg>
