<svg width="73" height="118" viewBox="0 0 73 118" fill="none" xmlns="http://www.w3.org/2000/svg">
<g filter="url(#filter0_ddddd_57_5669)">
<path d="M16.83 15.33C16.9251 11.8566 18.3718 8.55732 20.8622 6.13417C23.3526 3.71102 26.6903 2.35522 30.165 2.35522C33.6398 2.35522 36.9774 3.71102 39.4678 6.13417C41.9582 8.55732 43.4049 11.8566 43.5 15.33C43.5 15.8605 43.2893 16.3692 42.9142 16.7442C42.5392 17.1193 42.0304 17.33 41.5 17.33C40.9696 17.33 40.4609 17.1193 40.0858 16.7442C39.7107 16.3692 39.5 15.8605 39.5 15.33C39.4207 12.9071 38.4024 10.61 36.6605 8.92405C34.9185 7.23815 32.5892 6.29559 30.165 6.29559C27.7408 6.29559 25.4116 7.23815 23.6696 8.92405C21.9276 10.61 20.9093 12.9071 20.83 15.33C20.83 15.8605 20.6193 16.3692 20.2442 16.7442C19.8692 17.1193 19.3604 17.33 18.83 17.33C18.2996 17.33 17.7909 17.1193 17.4158 16.7442C17.0407 16.3692 16.83 15.8605 16.83 15.33ZM60.16 34V44C60.16 48.7739 58.2636 53.3523 54.8879 56.7279C51.5123 60.1036 46.9339 62 42.16 62H37.39C34.4242 62.0055 31.503 61.2781 28.8861 59.8824C26.2692 58.4867 24.0377 56.466 22.39 54L13.01 39.88C12.2397 38.7113 11.8949 37.3131 12.0332 35.9202C12.1716 34.5273 12.7848 33.2244 13.77 32.23C14.346 31.6525 15.0302 31.1943 15.7835 30.8817C16.5368 30.5691 17.3444 30.4081 18.16 30.4081C18.9756 30.4081 19.7832 30.5691 20.5365 30.8817C21.2898 31.1943 21.9741 31.6525 22.55 32.23L24.16 33.83V15.33C24.16 13.7387 24.7922 12.2126 25.9174 11.0874C27.0426 9.96216 28.5687 9.33002 30.16 9.33002C31.7513 9.33002 33.2774 9.96216 34.4027 11.0874C35.5279 12.2126 36.16 13.7387 36.16 15.33V23.01C37.5344 22.5252 39.0383 22.5572 40.3909 23.1C41.7434 23.6429 42.8522 24.6595 43.51 25.96C44.3322 25.5465 45.2397 25.3308 46.16 25.33C47.2687 25.3306 48.3555 25.6383 49.2999 26.2191C50.2443 26.7998 51.0093 27.6309 51.51 28.62C52.4245 28.1698 53.4387 27.96 54.4568 28.0104C55.4749 28.0609 56.4633 28.3698 57.3289 28.9082C58.1945 29.4465 58.9086 30.1965 59.4039 31.0874C59.8993 31.9783 60.1595 32.9807 60.16 34ZM56.16 34C56.16 33.4696 55.9493 32.9609 55.5742 32.5858C55.1992 32.2107 54.6904 32 54.16 32C53.6296 32 53.1209 32.2107 52.7458 32.5858C52.3707 32.9609 52.16 33.4696 52.16 34V36C52.16 36.5305 51.9493 37.0392 51.5742 37.4142C51.1992 37.7893 50.6904 38 50.16 38C49.6296 38 49.1209 37.7893 48.7458 37.4142C48.3707 37.0392 48.16 36.5305 48.16 36V31.33C48.16 30.7996 47.9493 30.2909 47.5742 29.9158C47.1992 29.5407 46.6904 29.33 46.16 29.33C45.6296 29.33 45.1209 29.5407 44.7458 29.9158C44.3707 30.2909 44.16 30.7996 44.16 31.33V33.33C44.16 33.8605 43.9493 34.3692 43.5742 34.7442C43.1992 35.1193 42.6904 35.33 42.16 35.33C41.6296 35.33 41.1209 35.1193 40.7458 34.7442C40.3707 34.3692 40.16 33.8605 40.16 33.33V28.66C40.16 28.1296 39.9493 27.6209 39.5742 27.2458C39.1992 26.8707 38.6904 26.66 38.16 26.66C37.6296 26.66 37.1209 26.8707 36.7458 27.2458C36.3707 27.6209 36.16 28.1296 36.16 28.66V33.33C36.16 33.8605 35.9493 34.3692 35.5742 34.7442C35.1992 35.1193 34.6904 35.33 34.16 35.33C33.6296 35.33 33.1209 35.1193 32.7458 34.7442C32.3707 34.3692 32.16 33.8605 32.16 33.33V15.33C32.16 14.7996 31.9493 14.2909 31.5742 13.9158C31.1992 13.5407 30.6904 13.33 30.16 13.33C29.6296 13.33 29.1209 13.5407 28.7458 13.9158C28.3707 14.2909 28.16 14.7996 28.16 15.33V38.66C28.1603 39.0552 28.0436 39.4416 27.8244 39.7705C27.6053 40.0994 27.2937 40.356 26.9289 40.5079C26.564 40.6598 26.1624 40.7003 25.7746 40.6241C25.3868 40.548 25.0303 40.3586 24.75 40.08L19.75 35.08C19.3341 34.6666 18.7715 34.4346 18.185 34.4346C17.5986 34.4346 17.0359 34.6666 16.62 35.08C16.2852 35.42 16.0769 35.8644 16.0296 36.3392C15.9823 36.814 16.0989 37.2906 16.36 37.69L25.76 51.79C27.0379 53.709 28.77 55.2826 30.8024 56.3712C32.8347 57.4598 35.1045 58.0296 37.41 58.03H42.18C45.893 58.03 49.454 56.555 52.0795 53.9295C54.705 51.304 56.18 47.7431 56.18 44.03L56.16 34Z" fill="url(#paint0_linear_57_5669)"/>
<path d="M16.83 15.33C16.9251 11.8566 18.3718 8.55732 20.8622 6.13417C23.3526 3.71102 26.6903 2.35522 30.165 2.35522C33.6398 2.35522 36.9774 3.71102 39.4678 6.13417C41.9582 8.55732 43.4049 11.8566 43.5 15.33C43.5 15.8605 43.2893 16.3692 42.9142 16.7442C42.5392 17.1193 42.0304 17.33 41.5 17.33C40.9696 17.33 40.4609 17.1193 40.0858 16.7442C39.7107 16.3692 39.5 15.8605 39.5 15.33C39.4207 12.9071 38.4024 10.61 36.6605 8.92405C34.9185 7.23815 32.5892 6.29559 30.165 6.29559C27.7408 6.29559 25.4116 7.23815 23.6696 8.92405C21.9276 10.61 20.9093 12.9071 20.83 15.33C20.83 15.8605 20.6193 16.3692 20.2442 16.7442C19.8692 17.1193 19.3604 17.33 18.83 17.33C18.2996 17.33 17.7909 17.1193 17.4158 16.7442C17.0407 16.3692 16.83 15.8605 16.83 15.33ZM60.16 34V44C60.16 48.7739 58.2636 53.3523 54.8879 56.7279C51.5123 60.1036 46.9339 62 42.16 62H37.39C34.4242 62.0055 31.503 61.2781 28.8861 59.8824C26.2692 58.4867 24.0377 56.466 22.39 54L13.01 39.88C12.2397 38.7113 11.8949 37.3131 12.0332 35.9202C12.1716 34.5273 12.7848 33.2244 13.77 32.23C14.346 31.6525 15.0302 31.1943 15.7835 30.8817C16.5368 30.5691 17.3444 30.4081 18.16 30.4081C18.9756 30.4081 19.7832 30.5691 20.5365 30.8817C21.2898 31.1943 21.9741 31.6525 22.55 32.23L24.16 33.83V15.33C24.16 13.7387 24.7922 12.2126 25.9174 11.0874C27.0426 9.96216 28.5687 9.33002 30.16 9.33002C31.7513 9.33002 33.2774 9.96216 34.4027 11.0874C35.5279 12.2126 36.16 13.7387 36.16 15.33V23.01C37.5344 22.5252 39.0383 22.5572 40.3909 23.1C41.7434 23.6429 42.8522 24.6595 43.51 25.96C44.3322 25.5465 45.2397 25.3308 46.16 25.33C47.2687 25.3306 48.3555 25.6383 49.2999 26.2191C50.2443 26.7998 51.0093 27.6309 51.51 28.62C52.4245 28.1698 53.4387 27.96 54.4568 28.0104C55.4749 28.0609 56.4633 28.3698 57.3289 28.9082C58.1945 29.4465 58.9086 30.1965 59.4039 31.0874C59.8993 31.9783 60.1595 32.9807 60.16 34ZM56.16 34C56.16 33.4696 55.9493 32.9609 55.5742 32.5858C55.1992 32.2107 54.6904 32 54.16 32C53.6296 32 53.1209 32.2107 52.7458 32.5858C52.3707 32.9609 52.16 33.4696 52.16 34V36C52.16 36.5305 51.9493 37.0392 51.5742 37.4142C51.1992 37.7893 50.6904 38 50.16 38C49.6296 38 49.1209 37.7893 48.7458 37.4142C48.3707 37.0392 48.16 36.5305 48.16 36V31.33C48.16 30.7996 47.9493 30.2909 47.5742 29.9158C47.1992 29.5407 46.6904 29.33 46.16 29.33C45.6296 29.33 45.1209 29.5407 44.7458 29.9158C44.3707 30.2909 44.16 30.7996 44.16 31.33V33.33C44.16 33.8605 43.9493 34.3692 43.5742 34.7442C43.1992 35.1193 42.6904 35.33 42.16 35.33C41.6296 35.33 41.1209 35.1193 40.7458 34.7442C40.3707 34.3692 40.16 33.8605 40.16 33.33V28.66C40.16 28.1296 39.9493 27.6209 39.5742 27.2458C39.1992 26.8707 38.6904 26.66 38.16 26.66C37.6296 26.66 37.1209 26.8707 36.7458 27.2458C36.3707 27.6209 36.16 28.1296 36.16 28.66V33.33C36.16 33.8605 35.9493 34.3692 35.5742 34.7442C35.1992 35.1193 34.6904 35.33 34.16 35.33C33.6296 35.33 33.1209 35.1193 32.7458 34.7442C32.3707 34.3692 32.16 33.8605 32.16 33.33V15.33C32.16 14.7996 31.9493 14.2909 31.5742 13.9158C31.1992 13.5407 30.6904 13.33 30.16 13.33C29.6296 13.33 29.1209 13.5407 28.7458 13.9158C28.3707 14.2909 28.16 14.7996 28.16 15.33V38.66C28.1603 39.0552 28.0436 39.4416 27.8244 39.7705C27.6053 40.0994 27.2937 40.356 26.9289 40.5079C26.564 40.6598 26.1624 40.7003 25.7746 40.6241C25.3868 40.548 25.0303 40.3586 24.75 40.08L19.75 35.08C19.3341 34.6666 18.7715 34.4346 18.185 34.4346C17.5986 34.4346 17.0359 34.6666 16.62 35.08C16.2852 35.42 16.0769 35.8644 16.0296 36.3392C15.9823 36.814 16.0989 37.2906 16.36 37.69L25.76 51.79C27.0379 53.709 28.77 55.2826 30.8024 56.3712C32.8347 57.4598 35.1045 58.0296 37.41 58.03H42.18C45.893 58.03 49.454 56.555 52.0795 53.9295C54.705 51.304 56.18 47.7431 56.18 44.03L56.16 34Z" fill="url(#paint1_linear_57_5669)"/>
</g>
<defs>
<filter id="filter0_ddddd_57_5669" x="0.00335693" y="0.355225" width="72.1566" height="117.645" filterUnits="userSpaceOnUse" color-interpolation-filters="sRGB">
<feFlood flood-opacity="0" result="BackgroundImageFix"/>
<feColorMatrix in="SourceAlpha" type="matrix" values="0 0 0 0 0 0 0 0 0 0 0 0 0 0 0 0 0 0 127 0" result="hardAlpha"/>
<feOffset dy="2"/>
<feGaussianBlur stdDeviation="2"/>
<feColorMatrix type="matrix" values="0 0 0 0 0.996078 0 0 0 0 0.235294 0 0 0 0 0 0 0 0 0.39 0"/>
<feBlend mode="normal" in2="BackgroundImageFix" result="effect1_dropShadow_57_5669"/>
<feColorMatrix in="SourceAlpha" type="matrix" values="0 0 0 0 0 0 0 0 0 0 0 0 0 0 0 0 0 0 127 0" result="hardAlpha"/>
<feOffset dy="7"/>
<feGaussianBlur stdDeviation="3.5"/>
<feColorMatrix type="matrix" values="0 0 0 0 0.996078 0 0 0 0 0.235294 0 0 0 0 0 0 0 0 0.34 0"/>
<feBlend mode="normal" in2="effect1_dropShadow_57_5669" result="effect2_dropShadow_57_5669"/>
<feColorMatrix in="SourceAlpha" type="matrix" values="0 0 0 0 0 0 0 0 0 0 0 0 0 0 0 0 0 0 127 0" result="hardAlpha"/>
<feOffset dy="16"/>
<feGaussianBlur stdDeviation="5"/>
<feColorMatrix type="matrix" values="0 0 0 0 0.996078 0 0 0 0 0.235294 0 0 0 0 0 0 0 0 0.2 0"/>
<feBlend mode="normal" in2="effect2_dropShadow_57_5669" result="effect3_dropShadow_57_5669"/>
<feColorMatrix in="SourceAlpha" type="matrix" values="0 0 0 0 0 0 0 0 0 0 0 0 0 0 0 0 0 0 127 0" result="hardAlpha"/>
<feOffset dy="28"/>
<feGaussianBlur stdDeviation="5.5"/>
<feColorMatrix type="matrix" values="0 0 0 0 0.996078 0 0 0 0 0.235294 0 0 0 0 0 0 0 0 0.06 0"/>
<feBlend mode="normal" in2="effect3_dropShadow_57_5669" result="effect4_dropShadow_57_5669"/>
<feColorMatrix in="SourceAlpha" type="matrix" values="0 0 0 0 0 0 0 0 0 0 0 0 0 0 0 0 0 0 127 0" result="hardAlpha"/>
<feOffset dy="44"/>
<feGaussianBlur stdDeviation="6"/>
<feColorMatrix type="matrix" values="0 0 0 0 0.996078 0 0 0 0 0.235294 0 0 0 0 0 0 0 0 0.01 0"/>
<feBlend mode="normal" in2="effect4_dropShadow_57_5669" result="effect5_dropShadow_57_5669"/>
<feBlend mode="normal" in="SourceGraphic" in2="effect5_dropShadow_57_5669" result="shape"/>
</filter>
<linearGradient id="paint0_linear_57_5669" x1="36.0817" y1="2.35522" x2="36.0817" y2="62" gradientUnits="userSpaceOnUse">
<stop stop-color="#FFE81F"/>
<stop offset="1" stop-color="#FE3C00"/>
</linearGradient>
<linearGradient id="paint1_linear_57_5669" x1="43.1687" y1="-13.2212" x2="8.68191" y2="2.71847" gradientUnits="userSpaceOnUse">
<stop stop-color="#FF6AE7"/>
<stop offset="1" stop-color="#FF6AE7" stop-opacity="0"/>
</linearGradient>
</defs>
</svg>
