<svg width="79" height="112" viewBox="0 0 79 112" fill="none" xmlns="http://www.w3.org/2000/svg">
<g filter="url(#filter0_ddddd_57_5677)">
<path d="M37.12 45.5199L32.01 48.0799V14.4599L32.32 14.3799L44.01 10.4799V24.0099C44.01 24.5403 44.2207 25.0491 44.5958 25.4241C44.9709 25.7992 45.4796 26.0099 46.01 26.0099C46.5404 26.0099 47.0491 25.7992 47.4242 25.4241C47.7993 25.0491 48.01 24.5403 48.01 24.0099V10.4899L59.56 14.3399C59.6995 14.3845 59.8199 14.475 59.9016 14.5966C59.9833 14.7182 60.0215 14.8639 60.01 15.0099V26.7099C60.01 27.2404 60.2207 27.7491 60.5958 28.1241C60.9709 28.4992 61.4796 28.7099 62.01 28.7099C62.5404 28.7099 63.0491 28.4992 63.4242 28.1241C63.7993 27.7491 64.01 27.2404 64.01 26.7099V15.0099C64.0102 14.0302 63.7022 13.0753 63.1297 12.2803C62.5572 11.4852 61.7492 10.8904 60.82 10.5799L48.33 6.37992C46.8219 5.87011 45.1881 5.87011 43.68 6.37992L31.06 10.5899C30.7362 10.6916 30.3993 10.7455 30.06 10.7499H30.01C29.6698 10.7468 29.3322 10.6894 29.01 10.5799L18.14 7.00992C17.4414 6.77996 16.6984 6.71826 15.9715 6.82982C15.2445 6.94139 14.5542 7.22307 13.9567 7.65193C13.3592 8.08079 12.8715 8.6447 12.5332 9.29774C12.1949 9.95078 12.0157 10.6745 12.01 11.4099V41.6599C12.007 42.528 12.2471 43.3797 12.703 44.1184C13.159 44.8571 13.8126 45.4535 14.59 45.8399L26.73 51.9099C27.7225 52.4015 28.8125 52.6645 29.92 52.6799H30.1C31.2074 52.6635 32.2971 52.4005 33.29 51.9099L38.9 49.0999C39.3581 48.8543 39.7025 48.44 39.8603 47.9448C40.0182 47.4496 39.9771 46.9123 39.7457 46.4469C39.5143 45.9815 39.1108 45.6245 38.6207 45.4515C38.1305 45.2784 37.5923 45.303 37.12 45.5199ZM16.37 42.2599C16.2587 42.2042 16.1651 42.1185 16.0997 42.0125C16.0344 41.9065 15.9998 41.7844 16 41.6599V11.4099C16.001 11.3044 16.0269 11.2007 16.0755 11.1071C16.1241 11.0135 16.1942 10.9328 16.28 10.8714C16.3657 10.81 16.4648 10.7697 16.569 10.7538C16.6733 10.7379 16.7799 10.7469 16.88 10.7799L27.69 14.3799L28.01 14.4599V48.0799L16.37 42.2599ZM55.37 30.9399C53.8795 30.9386 52.4033 31.2309 51.0258 31.8001C49.6482 32.3692 48.3963 33.2042 47.3414 34.2572C46.2865 35.3102 45.4494 36.5607 44.8778 37.9372C44.3062 39.3138 44.0113 40.7894 44.01 42.2799C44.01 48.0099 49.09 53.7699 52.11 56.7099C52.9766 57.5553 54.1393 58.0285 55.35 58.0285C56.5607 58.0285 57.7234 57.5553 58.59 56.7099C61.59 53.7699 66.69 47.9799 66.69 42.2799C66.6874 39.2732 65.4918 36.3903 63.3657 34.2642C61.2396 32.1382 58.3568 30.9426 55.35 30.9399H55.37ZM55.82 53.8399C55.699 53.956 55.5377 54.0209 55.37 54.0209C55.2023 54.0209 55.041 53.956 54.92 53.8399C52.85 51.8399 48.03 46.6799 48.03 42.2799C48.03 40.3332 48.8033 38.4663 50.1798 37.0898C51.5564 35.7132 53.4233 34.9399 55.37 34.9399C57.3167 34.9399 59.1837 35.7132 60.5602 37.0898C61.9367 38.4663 62.71 40.3332 62.71 42.2799C62.69 45.3699 60.18 49.5899 55.8 53.8399H55.82ZM55.35 39.3099C54.9953 39.3092 54.6439 39.3786 54.3161 39.5141C53.9883 39.6497 53.6906 39.8488 53.44 40.0999C53.1892 40.3481 52.9909 40.6442 52.8569 40.9706C52.7229 41.297 52.6559 41.6471 52.66 41.9999C52.66 42.5319 52.8178 43.052 53.1134 43.4944C53.4089 43.9368 53.8291 44.2816 54.3206 44.4851C54.8121 44.6887 55.353 44.742 55.8748 44.6382C56.3966 44.5344 56.8759 44.2782 57.2521 43.902C57.6283 43.5258 57.8845 43.0465 57.9883 42.5247C58.0921 42.0029 58.0388 41.462 57.8352 40.9705C57.6316 40.479 57.2869 40.0588 56.8445 39.7633C56.4021 39.4677 55.882 39.3099 55.35 39.3099Z" fill="url(#paint0_linear_57_5677)"/>
<path d="M37.12 45.5199L32.01 48.0799V14.4599L32.32 14.3799L44.01 10.4799V24.0099C44.01 24.5403 44.2207 25.0491 44.5958 25.4241C44.9709 25.7992 45.4796 26.0099 46.01 26.0099C46.5404 26.0099 47.0491 25.7992 47.4242 25.4241C47.7993 25.0491 48.01 24.5403 48.01 24.0099V10.4899L59.56 14.3399C59.6995 14.3845 59.8199 14.475 59.9016 14.5966C59.9833 14.7182 60.0215 14.8639 60.01 15.0099V26.7099C60.01 27.2404 60.2207 27.7491 60.5958 28.1241C60.9709 28.4992 61.4796 28.7099 62.01 28.7099C62.5404 28.7099 63.0491 28.4992 63.4242 28.1241C63.7993 27.7491 64.01 27.2404 64.01 26.7099V15.0099C64.0102 14.0302 63.7022 13.0753 63.1297 12.2803C62.5572 11.4852 61.7492 10.8904 60.82 10.5799L48.33 6.37992C46.8219 5.87011 45.1881 5.87011 43.68 6.37992L31.06 10.5899C30.7362 10.6916 30.3993 10.7455 30.06 10.7499H30.01C29.6698 10.7468 29.3322 10.6894 29.01 10.5799L18.14 7.00992C17.4414 6.77996 16.6984 6.71826 15.9715 6.82982C15.2445 6.94139 14.5542 7.22307 13.9567 7.65193C13.3592 8.08079 12.8715 8.6447 12.5332 9.29774C12.1949 9.95078 12.0157 10.6745 12.01 11.4099V41.6599C12.007 42.528 12.2471 43.3797 12.703 44.1184C13.159 44.8571 13.8126 45.4535 14.59 45.8399L26.73 51.9099C27.7225 52.4015 28.8125 52.6645 29.92 52.6799H30.1C31.2074 52.6635 32.2971 52.4005 33.29 51.9099L38.9 49.0999C39.3581 48.8543 39.7025 48.44 39.8603 47.9448C40.0182 47.4496 39.9771 46.9123 39.7457 46.4469C39.5143 45.9815 39.1108 45.6245 38.6207 45.4515C38.1305 45.2784 37.5923 45.303 37.12 45.5199ZM16.37 42.2599C16.2587 42.2042 16.1651 42.1185 16.0997 42.0125C16.0344 41.9065 15.9998 41.7844 16 41.6599V11.4099C16.001 11.3044 16.0269 11.2007 16.0755 11.1071C16.1241 11.0135 16.1942 10.9328 16.28 10.8714C16.3657 10.81 16.4648 10.7697 16.569 10.7538C16.6733 10.7379 16.7799 10.7469 16.88 10.7799L27.69 14.3799L28.01 14.4599V48.0799L16.37 42.2599ZM55.37 30.9399C53.8795 30.9386 52.4033 31.2309 51.0258 31.8001C49.6482 32.3692 48.3963 33.2042 47.3414 34.2572C46.2865 35.3102 45.4494 36.5607 44.8778 37.9372C44.3062 39.3138 44.0113 40.7894 44.01 42.2799C44.01 48.0099 49.09 53.7699 52.11 56.7099C52.9766 57.5553 54.1393 58.0285 55.35 58.0285C56.5607 58.0285 57.7234 57.5553 58.59 56.7099C61.59 53.7699 66.69 47.9799 66.69 42.2799C66.6874 39.2732 65.4918 36.3903 63.3657 34.2642C61.2396 32.1382 58.3568 30.9426 55.35 30.9399H55.37ZM55.82 53.8399C55.699 53.956 55.5377 54.0209 55.37 54.0209C55.2023 54.0209 55.041 53.956 54.92 53.8399C52.85 51.8399 48.03 46.6799 48.03 42.2799C48.03 40.3332 48.8033 38.4663 50.1798 37.0898C51.5564 35.7132 53.4233 34.9399 55.37 34.9399C57.3167 34.9399 59.1837 35.7132 60.5602 37.0898C61.9367 38.4663 62.71 40.3332 62.71 42.2799C62.69 45.3699 60.18 49.5899 55.8 53.8399H55.82ZM55.35 39.3099C54.9953 39.3092 54.6439 39.3786 54.3161 39.5141C53.9883 39.6497 53.6906 39.8488 53.44 40.0999C53.1892 40.3481 52.9909 40.6442 52.8569 40.9706C52.7229 41.297 52.6559 41.6471 52.66 41.9999C52.66 42.5319 52.8178 43.052 53.1134 43.4944C53.4089 43.9368 53.8291 44.2816 54.3206 44.4851C54.8121 44.6887 55.353 44.742 55.8748 44.6382C56.3966 44.5344 56.8759 44.2782 57.2521 43.902C57.6283 43.5258 57.8845 43.0465 57.9883 42.5247C58.0921 42.0029 58.0388 41.462 57.8352 40.9705C57.6316 40.479 57.2869 40.0588 56.8445 39.7633C56.4021 39.4677 55.882 39.3099 55.35 39.3099Z" fill="url(#paint1_linear_57_5677)"/>
</g>
<defs>
<filter id="filter0_ddddd_57_5677" x="0.00997925" y="3.99756" width="78.68" height="110.031" filterUnits="userSpaceOnUse" color-interpolation-filters="sRGB">
<feFlood flood-opacity="0" result="BackgroundImageFix"/>
<feColorMatrix in="SourceAlpha" type="matrix" values="0 0 0 0 0 0 0 0 0 0 0 0 0 0 0 0 0 0 127 0" result="hardAlpha"/>
<feOffset dy="2"/>
<feGaussianBlur stdDeviation="2"/>
<feColorMatrix type="matrix" values="0 0 0 0 0.996078 0 0 0 0 0.235294 0 0 0 0 0 0 0 0 0.39 0"/>
<feBlend mode="normal" in2="BackgroundImageFix" result="effect1_dropShadow_57_5677"/>
<feColorMatrix in="SourceAlpha" type="matrix" values="0 0 0 0 0 0 0 0 0 0 0 0 0 0 0 0 0 0 127 0" result="hardAlpha"/>
<feOffset dy="7"/>
<feGaussianBlur stdDeviation="3.5"/>
<feColorMatrix type="matrix" values="0 0 0 0 0.996078 0 0 0 0 0.235294 0 0 0 0 0 0 0 0 0.34 0"/>
<feBlend mode="normal" in2="effect1_dropShadow_57_5677" result="effect2_dropShadow_57_5677"/>
<feColorMatrix in="SourceAlpha" type="matrix" values="0 0 0 0 0 0 0 0 0 0 0 0 0 0 0 0 0 0 127 0" result="hardAlpha"/>
<feOffset dy="16"/>
<feGaussianBlur stdDeviation="5"/>
<feColorMatrix type="matrix" values="0 0 0 0 0.996078 0 0 0 0 0.235294 0 0 0 0 0 0 0 0 0.2 0"/>
<feBlend mode="normal" in2="effect2_dropShadow_57_5677" result="effect3_dropShadow_57_5677"/>
<feColorMatrix in="SourceAlpha" type="matrix" values="0 0 0 0 0 0 0 0 0 0 0 0 0 0 0 0 0 0 127 0" result="hardAlpha"/>
<feOffset dy="28"/>
<feGaussianBlur stdDeviation="5.5"/>
<feColorMatrix type="matrix" values="0 0 0 0 0.996078 0 0 0 0 0.235294 0 0 0 0 0 0 0 0 0.06 0"/>
<feBlend mode="normal" in2="effect3_dropShadow_57_5677" result="effect4_dropShadow_57_5677"/>
<feColorMatrix in="SourceAlpha" type="matrix" values="0 0 0 0 0 0 0 0 0 0 0 0 0 0 0 0 0 0 127 0" result="hardAlpha"/>
<feOffset dy="44"/>
<feGaussianBlur stdDeviation="6"/>
<feColorMatrix type="matrix" values="0 0 0 0 0.996078 0 0 0 0 0.235294 0 0 0 0 0 0 0 0 0.01 0"/>
<feBlend mode="normal" in2="effect4_dropShadow_57_5677" result="effect5_dropShadow_57_5677"/>
<feBlend mode="normal" in="SourceGraphic" in2="effect5_dropShadow_57_5677" result="shape"/>
</filter>
<linearGradient id="paint0_linear_57_5677" x1="39.35" y1="5.99756" x2="39.35" y2="58.0285" gradientUnits="userSpaceOnUse">
<stop stop-color="#FFE81F"/>
<stop offset="1" stop-color="#FE3C00"/>
</linearGradient>
<linearGradient id="paint1_linear_57_5677" x1="47.397" y1="-7.59049" x2="12.5026" y2="13.4021" gradientUnits="userSpaceOnUse">
<stop stop-color="#FF6AE7"/>
<stop offset="1" stop-color="#FF6AE7" stop-opacity="0"/>
</linearGradient>
</defs>
</svg>
