<svg width="76" height="112" viewBox="0 0 76 112" fill="none" xmlns="http://www.w3.org/2000/svg">
<g filter="url(#filter0_ddddd_57_5523)">
<path d="M56.67 6H19.33C17.3868 6.00265 15.5239 6.77576 14.1498 8.14983C12.7758 9.5239 12.0026 11.3868 12 13.33V50.67C12.0026 52.6132 12.7758 54.4761 14.1498 55.8502C15.5239 57.2242 17.3868 57.9974 19.33 58H56.67C58.6132 57.9974 60.4761 57.2242 61.8502 55.8502C63.2242 54.4761 63.9974 52.6132 64 50.67V13.33C63.9974 11.3868 63.2242 9.5239 61.8502 8.14983C60.4761 6.77576 58.6132 6.00265 56.67 6ZM60 50.67C59.9974 51.5524 59.6457 52.3978 59.0218 53.0218C58.3978 53.6457 57.5524 53.9974 56.67 54H19.33C18.4476 53.9974 17.6022 53.6457 16.9782 53.0218C16.3543 52.3978 16.0026 51.5524 16 50.67V13.33C16.0026 12.4476 16.3543 11.6022 16.9782 10.9782C17.6022 10.3543 18.4476 10.0026 19.33 10H56.67C57.5524 10.0026 58.3978 10.3543 59.0218 10.9782C59.6457 11.6022 59.9974 12.4476 60 13.33V50.67ZM51.33 30H48.7C48.4243 28.5146 47.8456 27.1019 47 25.85L48.85 24C49.2279 23.6221 49.4403 23.1095 49.4403 22.575C49.4403 22.0405 49.2279 21.5279 48.85 21.15C48.4721 20.7721 47.9595 20.5597 47.425 20.5597C46.8905 20.5597 46.3779 20.7721 46 21.15L44.15 23C42.9004 22.15 41.4868 21.5709 40 21.3V18.67C40 18.1396 39.7893 17.6309 39.4142 17.2558C39.0391 16.8807 38.5304 16.67 38 16.67C37.4696 16.67 36.9609 16.8807 36.5858 17.2558C36.2107 17.6309 36 18.1396 36 18.67V21.3C34.5132 21.5709 33.0996 22.15 31.85 23L30 21.15C29.6221 20.7721 29.1095 20.5597 28.575 20.5597C28.0405 20.5597 27.5279 20.7721 27.15 21.15C26.7721 21.5279 26.5597 22.0405 26.5597 22.575C26.5597 23.1095 26.7721 23.6221 27.15 24L29 25.85C28.1544 27.1019 27.5757 28.5146 27.3 30H24.67C24.1396 30 23.6309 30.2107 23.2558 30.5858C22.8807 30.9609 22.67 31.4696 22.67 32C22.67 32.5304 22.8807 33.0391 23.2558 33.4142C23.6309 33.7893 24.1396 34 24.67 34H27.3C27.5757 35.4854 28.1544 36.8981 29 38.15L27.15 40C26.7775 40.3747 26.5684 40.8816 26.5684 41.41C26.5684 41.9384 26.7775 42.4453 27.15 42.82C27.5247 43.1925 28.0316 43.4016 28.56 43.4016C29.0884 43.4016 29.5953 43.1925 29.97 42.82L31.85 41C33.1019 41.8456 34.5146 42.4243 36 42.7V45.33C36 45.8604 36.2107 46.3691 36.5858 46.7442C36.9609 47.1193 37.4696 47.33 38 47.33C38.5304 47.33 39.0391 47.1193 39.4142 46.7442C39.7893 46.3691 40 45.8604 40 45.33V42.7C41.4854 42.4243 42.8981 41.8456 44.15 41L46 42.85C46.3747 43.2225 46.8816 43.4316 47.41 43.4316C47.9384 43.4316 48.4453 43.2225 48.82 42.85C49.1925 42.4753 49.4016 41.9684 49.4016 41.44C49.4016 40.9116 49.1925 40.4047 48.82 40.03L47 38.15C47.8456 36.8981 48.4243 35.4854 48.7 34H51.33C51.8604 34 52.3691 33.7893 52.7442 33.4142C53.1193 33.0391 53.33 32.5304 53.33 32C53.33 31.4696 53.1193 30.9609 52.7442 30.5858C52.3691 30.2107 51.8604 30 51.33 30ZM38 38.88C36.1893 38.8759 34.4535 38.1571 33.17 36.88C32.5328 36.2458 32.0279 35.4914 31.6846 34.6606C31.3413 33.8297 31.1664 32.939 31.17 32.04V32C31.1752 30.1891 31.8941 28.4533 33.1709 27.1691C34.4476 25.8849 36.1792 25.1558 37.99 25.14H38.11C39.9121 25.1688 41.6309 25.9036 42.8969 27.1865C44.1629 28.4693 44.875 30.1977 44.88 32C44.8826 32.9042 44.7065 33.8001 44.3617 34.636C44.0168 35.4719 43.5102 36.2314 42.8708 36.8708C42.2314 37.5102 41.4719 38.0168 40.636 38.3617C39.8001 38.7065 38.9042 38.8826 38 38.88Z" fill="url(#paint0_linear_57_5523)"/>
<path d="M56.67 6H19.33C17.3868 6.00265 15.5239 6.77576 14.1498 8.14983C12.7758 9.5239 12.0026 11.3868 12 13.33V50.67C12.0026 52.6132 12.7758 54.4761 14.1498 55.8502C15.5239 57.2242 17.3868 57.9974 19.33 58H56.67C58.6132 57.9974 60.4761 57.2242 61.8502 55.8502C63.2242 54.4761 63.9974 52.6132 64 50.67V13.33C63.9974 11.3868 63.2242 9.5239 61.8502 8.14983C60.4761 6.77576 58.6132 6.00265 56.67 6ZM60 50.67C59.9974 51.5524 59.6457 52.3978 59.0218 53.0218C58.3978 53.6457 57.5524 53.9974 56.67 54H19.33C18.4476 53.9974 17.6022 53.6457 16.9782 53.0218C16.3543 52.3978 16.0026 51.5524 16 50.67V13.33C16.0026 12.4476 16.3543 11.6022 16.9782 10.9782C17.6022 10.3543 18.4476 10.0026 19.33 10H56.67C57.5524 10.0026 58.3978 10.3543 59.0218 10.9782C59.6457 11.6022 59.9974 12.4476 60 13.33V50.67ZM51.33 30H48.7C48.4243 28.5146 47.8456 27.1019 47 25.85L48.85 24C49.2279 23.6221 49.4403 23.1095 49.4403 22.575C49.4403 22.0405 49.2279 21.5279 48.85 21.15C48.4721 20.7721 47.9595 20.5597 47.425 20.5597C46.8905 20.5597 46.3779 20.7721 46 21.15L44.15 23C42.9004 22.15 41.4868 21.5709 40 21.3V18.67C40 18.1396 39.7893 17.6309 39.4142 17.2558C39.0391 16.8807 38.5304 16.67 38 16.67C37.4696 16.67 36.9609 16.8807 36.5858 17.2558C36.2107 17.6309 36 18.1396 36 18.67V21.3C34.5132 21.5709 33.0996 22.15 31.85 23L30 21.15C29.6221 20.7721 29.1095 20.5597 28.575 20.5597C28.0405 20.5597 27.5279 20.7721 27.15 21.15C26.7721 21.5279 26.5597 22.0405 26.5597 22.575C26.5597 23.1095 26.7721 23.6221 27.15 24L29 25.85C28.1544 27.1019 27.5757 28.5146 27.3 30H24.67C24.1396 30 23.6309 30.2107 23.2558 30.5858C22.8807 30.9609 22.67 31.4696 22.67 32C22.67 32.5304 22.8807 33.0391 23.2558 33.4142C23.6309 33.7893 24.1396 34 24.67 34H27.3C27.5757 35.4854 28.1544 36.8981 29 38.15L27.15 40C26.7775 40.3747 26.5684 40.8816 26.5684 41.41C26.5684 41.9384 26.7775 42.4453 27.15 42.82C27.5247 43.1925 28.0316 43.4016 28.56 43.4016C29.0884 43.4016 29.5953 43.1925 29.97 42.82L31.85 41C33.1019 41.8456 34.5146 42.4243 36 42.7V45.33C36 45.8604 36.2107 46.3691 36.5858 46.7442C36.9609 47.1193 37.4696 47.33 38 47.33C38.5304 47.33 39.0391 47.1193 39.4142 46.7442C39.7893 46.3691 40 45.8604 40 45.33V42.7C41.4854 42.4243 42.8981 41.8456 44.15 41L46 42.85C46.3747 43.2225 46.8816 43.4316 47.41 43.4316C47.9384 43.4316 48.4453 43.2225 48.82 42.85C49.1925 42.4753 49.4016 41.9684 49.4016 41.44C49.4016 40.9116 49.1925 40.4047 48.82 40.03L47 38.15C47.8456 36.8981 48.4243 35.4854 48.7 34H51.33C51.8604 34 52.3691 33.7893 52.7442 33.4142C53.1193 33.0391 53.33 32.5304 53.33 32C53.33 31.4696 53.1193 30.9609 52.7442 30.5858C52.3691 30.2107 51.8604 30 51.33 30ZM38 38.88C36.1893 38.8759 34.4535 38.1571 33.17 36.88C32.5328 36.2458 32.0279 35.4914 31.6846 34.6606C31.3413 33.8297 31.1664 32.939 31.17 32.04V32C31.1752 30.1891 31.8941 28.4533 33.1709 27.1691C34.4476 25.8849 36.1792 25.1558 37.99 25.14H38.11C39.9121 25.1688 41.6309 25.9036 42.8969 27.1865C44.1629 28.4693 44.875 30.1977 44.88 32C44.8826 32.9042 44.7065 33.8001 44.3617 34.636C44.0168 35.4719 43.5102 36.2314 42.8708 36.8708C42.2314 37.5102 41.4719 38.0168 40.636 38.3617C39.8001 38.7065 38.9042 38.8826 38 38.88Z" fill="url(#paint1_linear_57_5523)"/>
</g>
<defs>
<filter id="filter0_ddddd_57_5523" x="0" y="4" width="76" height="110" filterUnits="userSpaceOnUse" color-interpolation-filters="sRGB">
<feFlood flood-opacity="0" result="BackgroundImageFix"/>
<feColorMatrix in="SourceAlpha" type="matrix" values="0 0 0 0 0 0 0 0 0 0 0 0 0 0 0 0 0 0 127 0" result="hardAlpha"/>
<feOffset dy="2"/>
<feGaussianBlur stdDeviation="2"/>
<feColorMatrix type="matrix" values="0 0 0 0 0.996078 0 0 0 0 0.235294 0 0 0 0 0 0 0 0 0.39 0"/>
<feBlend mode="normal" in2="BackgroundImageFix" result="effect1_dropShadow_57_5523"/>
<feColorMatrix in="SourceAlpha" type="matrix" values="0 0 0 0 0 0 0 0 0 0 0 0 0 0 0 0 0 0 127 0" result="hardAlpha"/>
<feOffset dy="7"/>
<feGaussianBlur stdDeviation="3.5"/>
<feColorMatrix type="matrix" values="0 0 0 0 0.996078 0 0 0 0 0.235294 0 0 0 0 0 0 0 0 0.34 0"/>
<feBlend mode="normal" in2="effect1_dropShadow_57_5523" result="effect2_dropShadow_57_5523"/>
<feColorMatrix in="SourceAlpha" type="matrix" values="0 0 0 0 0 0 0 0 0 0 0 0 0 0 0 0 0 0 127 0" result="hardAlpha"/>
<feOffset dy="16"/>
<feGaussianBlur stdDeviation="5"/>
<feColorMatrix type="matrix" values="0 0 0 0 0.996078 0 0 0 0 0.235294 0 0 0 0 0 0 0 0 0.2 0"/>
<feBlend mode="normal" in2="effect2_dropShadow_57_5523" result="effect3_dropShadow_57_5523"/>
<feColorMatrix in="SourceAlpha" type="matrix" values="0 0 0 0 0 0 0 0 0 0 0 0 0 0 0 0 0 0 127 0" result="hardAlpha"/>
<feOffset dy="28"/>
<feGaussianBlur stdDeviation="5.5"/>
<feColorMatrix type="matrix" values="0 0 0 0 0.996078 0 0 0 0 0.235294 0 0 0 0 0 0 0 0 0.06 0"/>
<feBlend mode="normal" in2="effect3_dropShadow_57_5523" result="effect4_dropShadow_57_5523"/>
<feColorMatrix in="SourceAlpha" type="matrix" values="0 0 0 0 0 0 0 0 0 0 0 0 0 0 0 0 0 0 127 0" result="hardAlpha"/>
<feOffset dy="44"/>
<feGaussianBlur stdDeviation="6"/>
<feColorMatrix type="matrix" values="0 0 0 0 0.996078 0 0 0 0 0.235294 0 0 0 0 0 0 0 0 0.01 0"/>
<feBlend mode="normal" in2="effect4_dropShadow_57_5523" result="effect5_dropShadow_57_5523"/>
<feBlend mode="normal" in="SourceGraphic" in2="effect5_dropShadow_57_5523" result="shape"/>
</filter>
<linearGradient id="paint0_linear_57_5523" x1="38" y1="6" x2="38" y2="58" gradientUnits="userSpaceOnUse">
<stop stop-color="#FFE81F"/>
<stop offset="1" stop-color="#FE3C00"/>
</linearGradient>
<linearGradient id="paint1_linear_57_5523" x1="45.6526" y1="-7.57998" x2="11.6132" y2="11.9062" gradientUnits="userSpaceOnUse">
<stop stop-color="#FF6AE7"/>
<stop offset="1" stop-color="#FF6AE7" stop-opacity="0"/>
</linearGradient>
</defs>
</svg>
