<svg width="76" height="114" viewBox="0 0 76 114" fill="none" xmlns="http://www.w3.org/2000/svg">
<g filter="url(#filter0_ddddd_57_5662)">
<path d="M38.01 6.01001C32.8677 6.01001 27.8409 7.53488 23.5652 10.3918C19.2895 13.2487 15.957 17.3094 13.9891 22.0602C12.0213 26.8111 11.5064 32.0389 12.5096 37.0824C13.5128 42.1259 15.9891 46.7586 19.6252 50.3948C23.2614 54.031 27.8942 56.5072 32.9377 57.5104C37.9812 58.5136 43.2089 57.9988 47.9598 56.0309C52.7107 54.063 56.7713 50.7305 59.6282 46.4548C62.4851 42.1792 64.01 37.1523 64.01 32.01C64.01 25.1144 61.2707 18.5012 56.3948 13.6252C51.5188 8.74929 44.9056 6.01001 38.01 6.01001ZM38.01 54.01C33.6588 54.01 29.4053 52.7197 25.7875 50.3023C22.1696 47.8849 19.3498 44.449 17.6847 40.429C16.0195 36.4091 15.5839 31.9856 16.4327 27.718C17.2816 23.4504 19.3769 19.5304 22.4537 16.4537C25.5304 13.3769 29.4504 11.2816 33.718 10.4327C37.9856 9.58386 42.4091 10.0195 46.429 11.6847C50.449 13.3498 53.8849 16.1696 56.3023 19.7875C58.7197 23.4053 60.01 27.6588 60.01 32.01C60.01 37.8448 57.6922 43.4406 53.5664 47.5664C49.4406 51.6922 43.8448 54.01 38.01 54.01ZM45.52 18.49C43.9287 18.49 42.4026 19.1222 41.2774 20.2474C40.1521 21.3726 39.52 22.8987 39.52 24.49C39.5174 25.3837 39.7192 26.2663 40.11 27.07L38.74 28.45L32.34 22.01C31.8555 21.5112 31.2652 21.1276 30.6125 20.8876C29.9598 20.6476 29.2615 20.5575 28.5693 20.6237C27.8771 20.69 27.2086 20.9109 26.6133 21.2703C26.018 21.6297 25.5111 22.1183 25.13 22.7C23.5967 25.1304 22.7427 27.9272 22.6568 30.7995C22.5709 33.6719 23.2564 36.5148 24.6418 39.0324C26.0272 41.55 28.0619 43.6503 30.5343 45.1149C33.0067 46.5795 35.8264 47.3547 38.7 47.36C41.7623 47.3556 44.761 46.4855 47.35 44.85C47.9193 44.4655 48.3962 43.9594 48.7461 43.3682C49.096 42.777 49.3103 42.1154 49.3734 41.4313C49.4366 40.7472 49.347 40.0577 49.1112 39.4124C48.8754 38.7671 48.4993 38.1822 48.01 37.7L41.6 31.28L42.97 29.91C43.7738 30.3008 44.6563 30.5027 45.55 30.5C47.1413 30.5 48.6674 29.8679 49.7926 28.7427C50.9179 27.6174 51.55 26.0913 51.55 24.5C51.55 22.9087 50.9179 21.3826 49.7926 20.2574C48.6674 19.1322 47.1413 18.5 45.55 18.5L45.52 18.49ZM45.18 40.54C45.2486 40.6069 45.3013 40.6884 45.3341 40.7784C45.367 40.8684 45.3793 40.9646 45.37 41.06C45.3593 41.2254 45.2838 41.3799 45.16 41.49C42.8525 42.945 40.1199 43.5748 37.4083 43.2764C34.6968 42.978 32.1665 41.7691 30.2306 39.8472C28.2947 37.9252 27.0676 35.4037 26.7496 32.6944C26.4317 29.985 27.0417 27.2479 28.48 24.93C28.5333 24.852 28.6029 24.7865 28.6841 24.7382C28.7653 24.6898 28.856 24.6597 28.95 24.65H29.01C29.0999 24.6515 29.1887 24.6709 29.271 24.7069C29.3534 24.743 29.4279 24.795 29.49 24.86L37.31 32.68L45.13 40.5L45.18 40.54ZM45.52 26.54C45.1244 26.54 44.7378 26.4227 44.4089 26.2029C44.08 25.9832 43.8236 25.6708 43.6722 25.3054C43.5209 24.9399 43.4813 24.5378 43.5584 24.1498C43.6356 23.7619 43.8261 23.4055 44.1058 23.1258C44.3855 22.8461 44.7419 22.6556 45.1298 22.5784C45.5178 22.5013 45.9199 22.5409 46.2854 22.6923C46.6508 22.8436 46.9632 23.1 47.1829 23.4289C47.4027 23.7578 47.52 24.1444 47.52 24.54C47.5095 25.0635 47.2942 25.562 46.9203 25.9284C46.5463 26.2949 46.0436 26.5001 45.52 26.5V26.54Z" fill="url(#paint0_linear_57_5662)"/>
<path d="M38.01 6.01001C32.8677 6.01001 27.8409 7.53488 23.5652 10.3918C19.2895 13.2487 15.957 17.3094 13.9891 22.0602C12.0213 26.8111 11.5064 32.0389 12.5096 37.0824C13.5128 42.1259 15.9891 46.7586 19.6252 50.3948C23.2614 54.031 27.8942 56.5072 32.9377 57.5104C37.9812 58.5136 43.2089 57.9988 47.9598 56.0309C52.7107 54.063 56.7713 50.7305 59.6282 46.4548C62.4851 42.1792 64.01 37.1523 64.01 32.01C64.01 25.1144 61.2707 18.5012 56.3948 13.6252C51.5188 8.74929 44.9056 6.01001 38.01 6.01001ZM38.01 54.01C33.6588 54.01 29.4053 52.7197 25.7875 50.3023C22.1696 47.8849 19.3498 44.449 17.6847 40.429C16.0195 36.4091 15.5839 31.9856 16.4327 27.718C17.2816 23.4504 19.3769 19.5304 22.4537 16.4537C25.5304 13.3769 29.4504 11.2816 33.718 10.4327C37.9856 9.58386 42.4091 10.0195 46.429 11.6847C50.449 13.3498 53.8849 16.1696 56.3023 19.7875C58.7197 23.4053 60.01 27.6588 60.01 32.01C60.01 37.8448 57.6922 43.4406 53.5664 47.5664C49.4406 51.6922 43.8448 54.01 38.01 54.01ZM45.52 18.49C43.9287 18.49 42.4026 19.1222 41.2774 20.2474C40.1521 21.3726 39.52 22.8987 39.52 24.49C39.5174 25.3837 39.7192 26.2663 40.11 27.07L38.74 28.45L32.34 22.01C31.8555 21.5112 31.2652 21.1276 30.6125 20.8876C29.9598 20.6476 29.2615 20.5575 28.5693 20.6237C27.8771 20.69 27.2086 20.9109 26.6133 21.2703C26.018 21.6297 25.5111 22.1183 25.13 22.7C23.5967 25.1304 22.7427 27.9272 22.6568 30.7995C22.5709 33.6719 23.2564 36.5148 24.6418 39.0324C26.0272 41.55 28.0619 43.6503 30.5343 45.1149C33.0067 46.5795 35.8264 47.3547 38.7 47.36C41.7623 47.3556 44.761 46.4855 47.35 44.85C47.9193 44.4655 48.3962 43.9594 48.7461 43.3682C49.096 42.777 49.3103 42.1154 49.3734 41.4313C49.4366 40.7472 49.347 40.0577 49.1112 39.4124C48.8754 38.7671 48.4993 38.1822 48.01 37.7L41.6 31.28L42.97 29.91C43.7738 30.3008 44.6563 30.5027 45.55 30.5C47.1413 30.5 48.6674 29.8679 49.7926 28.7427C50.9179 27.6174 51.55 26.0913 51.55 24.5C51.55 22.9087 50.9179 21.3826 49.7926 20.2574C48.6674 19.1322 47.1413 18.5 45.55 18.5L45.52 18.49ZM45.18 40.54C45.2486 40.6069 45.3013 40.6884 45.3341 40.7784C45.367 40.8684 45.3793 40.9646 45.37 41.06C45.3593 41.2254 45.2838 41.3799 45.16 41.49C42.8525 42.945 40.1199 43.5748 37.4083 43.2764C34.6968 42.978 32.1665 41.7691 30.2306 39.8472C28.2947 37.9252 27.0676 35.4037 26.7496 32.6944C26.4317 29.985 27.0417 27.2479 28.48 24.93C28.5333 24.852 28.6029 24.7865 28.6841 24.7382C28.7653 24.6898 28.856 24.6597 28.95 24.65H29.01C29.0999 24.6515 29.1887 24.6709 29.271 24.7069C29.3534 24.743 29.4279 24.795 29.49 24.86L37.31 32.68L45.13 40.5L45.18 40.54ZM45.52 26.54C45.1244 26.54 44.7378 26.4227 44.4089 26.2029C44.08 25.9832 43.8236 25.6708 43.6722 25.3054C43.5209 24.9399 43.4813 24.5378 43.5584 24.1498C43.6356 23.7619 43.8261 23.4055 44.1058 23.1258C44.3855 22.8461 44.7419 22.6556 45.1298 22.5784C45.5178 22.5013 45.9199 22.5409 46.2854 22.6923C46.6508 22.8436 46.9632 23.1 47.1829 23.4289C47.4027 23.7578 47.52 24.1444 47.52 24.54C47.5095 25.0635 47.2942 25.562 46.9203 25.9284C46.5463 26.2949 46.0436 26.5001 45.52 26.5V26.54Z" fill="url(#paint1_linear_57_5662)"/>
</g>
<defs>
<filter id="filter0_ddddd_57_5662" x="0.00999451" y="4.01001" width="76" height="110" filterUnits="userSpaceOnUse" color-interpolation-filters="sRGB">
<feFlood flood-opacity="0" result="BackgroundImageFix"/>
<feColorMatrix in="SourceAlpha" type="matrix" values="0 0 0 0 0 0 0 0 0 0 0 0 0 0 0 0 0 0 127 0" result="hardAlpha"/>
<feOffset dy="2"/>
<feGaussianBlur stdDeviation="2"/>
<feColorMatrix type="matrix" values="0 0 0 0 0.996078 0 0 0 0 0.235294 0 0 0 0 0 0 0 0 0.39 0"/>
<feBlend mode="normal" in2="BackgroundImageFix" result="effect1_dropShadow_57_5662"/>
<feColorMatrix in="SourceAlpha" type="matrix" values="0 0 0 0 0 0 0 0 0 0 0 0 0 0 0 0 0 0 127 0" result="hardAlpha"/>
<feOffset dy="7"/>
<feGaussianBlur stdDeviation="3.5"/>
<feColorMatrix type="matrix" values="0 0 0 0 0.996078 0 0 0 0 0.235294 0 0 0 0 0 0 0 0 0.34 0"/>
<feBlend mode="normal" in2="effect1_dropShadow_57_5662" result="effect2_dropShadow_57_5662"/>
<feColorMatrix in="SourceAlpha" type="matrix" values="0 0 0 0 0 0 0 0 0 0 0 0 0 0 0 0 0 0 127 0" result="hardAlpha"/>
<feOffset dy="16"/>
<feGaussianBlur stdDeviation="5"/>
<feColorMatrix type="matrix" values="0 0 0 0 0.996078 0 0 0 0 0.235294 0 0 0 0 0 0 0 0 0.2 0"/>
<feBlend mode="normal" in2="effect2_dropShadow_57_5662" result="effect3_dropShadow_57_5662"/>
<feColorMatrix in="SourceAlpha" type="matrix" values="0 0 0 0 0 0 0 0 0 0 0 0 0 0 0 0 0 0 127 0" result="hardAlpha"/>
<feOffset dy="28"/>
<feGaussianBlur stdDeviation="5.5"/>
<feColorMatrix type="matrix" values="0 0 0 0 0.996078 0 0 0 0 0.235294 0 0 0 0 0 0 0 0 0.06 0"/>
<feBlend mode="normal" in2="effect3_dropShadow_57_5662" result="effect4_dropShadow_57_5662"/>
<feColorMatrix in="SourceAlpha" type="matrix" values="0 0 0 0 0 0 0 0 0 0 0 0 0 0 0 0 0 0 127 0" result="hardAlpha"/>
<feOffset dy="44"/>
<feGaussianBlur stdDeviation="6"/>
<feColorMatrix type="matrix" values="0 0 0 0 0.996078 0 0 0 0 0.235294 0 0 0 0 0 0 0 0 0.01 0"/>
<feBlend mode="normal" in2="effect4_dropShadow_57_5662" result="effect5_dropShadow_57_5662"/>
<feBlend mode="normal" in="SourceGraphic" in2="effect5_dropShadow_57_5662" result="shape"/>
</filter>
<linearGradient id="paint0_linear_57_5662" x1="38.01" y1="6.01001" x2="38.01" y2="58.01" gradientUnits="userSpaceOnUse">
<stop stop-color="#FFE81F"/>
<stop offset="1" stop-color="#FE3C00"/>
</linearGradient>
<linearGradient id="paint1_linear_57_5662" x1="45.6626" y1="-7.56997" x2="11.6232" y2="11.9162" gradientUnits="userSpaceOnUse">
<stop stop-color="#FF6AE7"/>
<stop offset="1" stop-color="#FF6AE7" stop-opacity="0"/>
</linearGradient>
</defs>
</svg>
