<svg width="82" height="112" viewBox="0 0 82 112" fill="none" xmlns="http://www.w3.org/2000/svg">
<g filter="url(#filter0_ddddd_57_5648)">
<path d="M66.68 39.68V50.35C66.6774 52.2932 65.9042 54.1561 64.5302 55.5302C63.1561 56.9042 61.2932 57.6774 59.35 57.68H46.02C45.4896 57.68 44.9809 57.4693 44.6058 57.0942C44.2307 56.7192 44.02 56.2104 44.02 55.68C44.02 55.1496 44.2307 54.6409 44.6058 54.2658C44.9809 53.8907 45.4896 53.68 46.02 53.68H59.35C60.2315 53.6748 61.0755 53.3222 61.6989 52.6989C62.3222 52.0755 62.6748 51.2316 62.68 50.35V39.68C62.68 39.1496 62.8907 38.6409 63.2658 38.2658C63.6409 37.8907 64.1496 37.68 64.68 37.68C65.2104 37.68 65.7191 37.8907 66.0942 38.2658C66.4693 38.6409 66.68 39.1496 66.68 39.68ZM16.68 28.34C17.2104 28.34 17.7191 28.1293 18.0942 27.7542C18.4693 27.3791 18.68 26.8704 18.68 26.34V13.01C18.6852 12.1285 19.0378 11.2845 19.6611 10.6611C20.2845 10.0378 21.1284 9.68525 22.01 9.68001H35.34C35.8704 9.68001 36.3791 9.46929 36.7542 9.09422C37.1293 8.71915 37.34 8.21044 37.34 7.68001C37.34 7.14957 37.1293 6.64087 36.7542 6.26579C36.3791 5.89072 35.8704 5.68001 35.34 5.68001H22.01C20.0668 5.68265 18.2039 6.45577 16.8298 7.82984C15.4558 9.20391 14.6826 11.0668 14.68 13.01V26.34C14.68 26.8704 14.8907 27.3791 15.2658 27.7542C15.6409 28.1293 16.1496 28.34 16.68 28.34ZM54.02 33.68C50.986 33.68 48.0202 32.7803 45.4976 31.0947C42.9749 29.4092 41.0087 27.0134 39.8477 24.2104C38.6866 21.4074 38.3829 18.323 38.9748 15.3473C39.5667 12.3717 41.0276 9.63833 43.173 7.49299C45.3183 5.34765 48.0516 3.88666 51.0273 3.29476C54.003 2.70286 57.0873 3.00665 59.8904 4.1677C62.6934 5.32874 65.0892 7.29491 66.7747 9.81756C68.4603 12.3402 69.36 15.306 69.36 18.34C69.3547 22.4068 67.7368 26.3055 64.8612 29.1812C61.9855 32.0568 58.0868 33.6747 54.02 33.68ZM54.02 29.68C56.2628 29.68 58.4553 29.0149 60.3202 27.7689C62.185 26.5228 63.6385 24.7518 64.4968 22.6796C65.3551 20.6075 65.5797 18.3274 65.1421 16.1277C64.7045 13.9279 63.6245 11.9073 62.0386 10.3214C60.4527 8.73549 58.4321 7.65546 56.2323 7.2179C54.0326 6.78035 51.7525 7.00492 49.6804 7.86321C47.6083 8.72151 45.8372 10.175 44.5911 12.0398C43.3451 13.9047 42.68 16.0972 42.68 18.34C42.6853 21.3459 43.8817 24.2272 46.0072 26.3528C48.1328 28.4783 51.0141 29.6747 54.02 29.68ZM38.19 34.17C40.7002 36.6788 42.2628 39.9803 42.6117 43.512C42.9605 47.0437 42.0741 50.5872 40.1033 53.5386C38.1325 56.49 35.1994 58.6668 31.8036 59.6981C28.4078 60.7293 24.7595 60.5513 21.4803 59.1943C18.2011 57.8372 15.4938 55.3852 13.8198 52.2559C12.1458 49.1266 11.6085 45.5137 12.2996 42.0327C12.9907 38.5518 14.8674 35.4181 17.6099 33.1657C20.3524 30.9132 23.7911 29.6814 27.34 29.68C29.3553 29.6754 31.3517 30.0698 33.2138 30.8404C35.076 31.611 36.7673 32.7426 38.19 34.17ZM38.68 45.02C38.684 42.3956 37.7776 39.8511 36.1153 37.8202C34.4531 35.7894 32.1379 34.3979 29.5645 33.8831C26.9911 33.3683 24.3188 33.762 22.0032 34.9971C19.6876 36.2322 17.8721 38.2322 16.8661 40.6562C15.8602 43.0801 15.7261 45.7779 16.4868 48.2896C17.2475 50.8014 18.8558 52.9715 21.0375 54.4301C23.2192 55.8887 25.8393 56.5454 28.4511 56.2882C31.0629 56.0311 33.5046 54.8761 35.36 53.02C36.4137 51.9714 37.2494 50.7247 37.8192 49.3517C38.389 47.9787 38.6816 46.5065 38.68 45.02ZM34.02 48.48C34.1242 48.7302 34.1765 48.999 34.1736 49.2701C34.1708 49.5411 34.1129 49.8087 34.0034 50.0567C33.8939 50.3047 33.7352 50.5278 33.5369 50.7125C33.3385 50.8973 33.1047 51.0398 32.8496 51.1314C32.5945 51.2229 32.3234 51.2617 32.0529 51.2453C31.7823 51.229 31.5179 51.1578 31.2757 51.036C31.0335 50.9143 30.8186 50.7447 30.644 50.5373C30.4694 50.33 30.3387 50.0894 30.26 49.83L30.05 49.23H24.68L24.46 49.83C24.3219 50.2184 24.0672 50.5547 23.7306 50.7927C23.3941 51.0308 22.9922 51.1591 22.58 51.16C22.3481 51.1597 22.118 51.1191 21.9 51.04C21.6514 50.9526 21.4225 50.8169 21.2265 50.6408C21.0305 50.4647 20.8712 50.2515 20.7578 50.0136C20.6445 49.7757 20.5792 49.5178 20.5659 49.2546C20.5525 48.9914 20.5913 48.7282 20.68 48.48L24.13 38.87C24.2703 38.4819 24.5273 38.1466 24.8657 37.9103C25.2041 37.674 25.6073 37.5481 26.02 37.55H28.68C29.091 37.5502 29.492 37.677 29.8284 37.9132C30.1648 38.1494 30.4202 38.4835 30.56 38.87L33.26 46.39C33.307 46.4859 33.3438 46.5865 33.37 46.69L34.02 48.48ZM28.61 45.23L27.34 41.68L26.08 45.23H28.61ZM56.54 24.35C56.8779 24.5728 57.2754 24.6879 57.68 24.68C58.0137 24.6805 58.3423 24.5975 58.6357 24.4386C58.9291 24.2796 59.1781 24.0498 59.36 23.77C59.5039 23.5501 59.6031 23.304 59.6519 23.0457C59.7007 22.7874 59.698 22.522 59.6442 22.2648C59.5903 22.0075 59.4862 21.7634 59.338 21.5464C59.1897 21.3294 59.0001 21.1437 58.78 21C57.6877 20.2836 56.8591 19.2302 56.42 18H58.07C58.6004 18 59.1091 17.7893 59.4842 17.4142C59.8593 17.0391 60.07 16.5304 60.07 16C60.07 15.4696 59.8593 14.9609 59.4842 14.5858C59.1091 14.2107 58.6004 14 58.07 14H56.07V12.89C56.07 12.3596 55.8593 11.8509 55.4842 11.4758C55.1091 11.1007 54.6004 10.89 54.07 10.89C53.5396 10.89 53.0309 11.1007 52.6558 11.4758C52.2807 11.8509 52.07 12.3596 52.07 12.89V14.01H50.07C49.5396 14.01 49.0309 14.2207 48.6558 14.5958C48.2807 14.9709 48.07 15.4796 48.07 16.01C48.07 16.5404 48.2807 17.0491 48.6558 17.4242C49.0309 17.7993 49.5396 18.01 50.07 18.01H51.68C51.2494 19.2421 50.4231 20.2969 49.33 21.01C48.9729 21.2452 48.7006 21.5887 48.553 21.9901C48.4054 22.3914 48.3904 22.8295 48.5101 23.24C48.6298 23.6506 48.8779 24.0119 49.218 24.2711C49.5582 24.5302 49.9724 24.6736 50.4 24.68C50.7876 24.678 51.1663 24.5633 51.49 24.35C52.4649 23.7133 53.3211 22.9113 54.02 21.98C54.7185 22.9081 55.5708 23.7097 56.54 24.35Z" fill="url(#paint0_linear_57_5648)"/>
<path d="M66.68 39.68V50.35C66.6774 52.2932 65.9042 54.1561 64.5302 55.5302C63.1561 56.9042 61.2932 57.6774 59.35 57.68H46.02C45.4896 57.68 44.9809 57.4693 44.6058 57.0942C44.2307 56.7192 44.02 56.2104 44.02 55.68C44.02 55.1496 44.2307 54.6409 44.6058 54.2658C44.9809 53.8907 45.4896 53.68 46.02 53.68H59.35C60.2315 53.6748 61.0755 53.3222 61.6989 52.6989C62.3222 52.0755 62.6748 51.2316 62.68 50.35V39.68C62.68 39.1496 62.8907 38.6409 63.2658 38.2658C63.6409 37.8907 64.1496 37.68 64.68 37.68C65.2104 37.68 65.7191 37.8907 66.0942 38.2658C66.4693 38.6409 66.68 39.1496 66.68 39.68ZM16.68 28.34C17.2104 28.34 17.7191 28.1293 18.0942 27.7542C18.4693 27.3791 18.68 26.8704 18.68 26.34V13.01C18.6852 12.1285 19.0378 11.2845 19.6611 10.6611C20.2845 10.0378 21.1284 9.68525 22.01 9.68001H35.34C35.8704 9.68001 36.3791 9.46929 36.7542 9.09422C37.1293 8.71915 37.34 8.21044 37.34 7.68001C37.34 7.14957 37.1293 6.64087 36.7542 6.26579C36.3791 5.89072 35.8704 5.68001 35.34 5.68001H22.01C20.0668 5.68265 18.2039 6.45577 16.8298 7.82984C15.4558 9.20391 14.6826 11.0668 14.68 13.01V26.34C14.68 26.8704 14.8907 27.3791 15.2658 27.7542C15.6409 28.1293 16.1496 28.34 16.68 28.34ZM54.02 33.68C50.986 33.68 48.0202 32.7803 45.4976 31.0947C42.9749 29.4092 41.0087 27.0134 39.8477 24.2104C38.6866 21.4074 38.3829 18.323 38.9748 15.3473C39.5667 12.3717 41.0276 9.63833 43.173 7.49299C45.3183 5.34765 48.0516 3.88666 51.0273 3.29476C54.003 2.70286 57.0873 3.00665 59.8904 4.1677C62.6934 5.32874 65.0892 7.29491 66.7747 9.81756C68.4603 12.3402 69.36 15.306 69.36 18.34C69.3547 22.4068 67.7368 26.3055 64.8612 29.1812C61.9855 32.0568 58.0868 33.6747 54.02 33.68ZM54.02 29.68C56.2628 29.68 58.4553 29.0149 60.3202 27.7689C62.185 26.5228 63.6385 24.7518 64.4968 22.6796C65.3551 20.6075 65.5797 18.3274 65.1421 16.1277C64.7045 13.9279 63.6245 11.9073 62.0386 10.3214C60.4527 8.73549 58.4321 7.65546 56.2323 7.2179C54.0326 6.78035 51.7525 7.00492 49.6804 7.86321C47.6083 8.72151 45.8372 10.175 44.5911 12.0398C43.3451 13.9047 42.68 16.0972 42.68 18.34C42.6853 21.3459 43.8817 24.2272 46.0072 26.3528C48.1328 28.4783 51.0141 29.6747 54.02 29.68ZM38.19 34.17C40.7002 36.6788 42.2628 39.9803 42.6117 43.512C42.9605 47.0437 42.0741 50.5872 40.1033 53.5386C38.1325 56.49 35.1994 58.6668 31.8036 59.6981C28.4078 60.7293 24.7595 60.5513 21.4803 59.1943C18.2011 57.8372 15.4938 55.3852 13.8198 52.2559C12.1458 49.1266 11.6085 45.5137 12.2996 42.0327C12.9907 38.5518 14.8674 35.4181 17.6099 33.1657C20.3524 30.9132 23.7911 29.6814 27.34 29.68C29.3553 29.6754 31.3517 30.0698 33.2138 30.8404C35.076 31.611 36.7673 32.7426 38.19 34.17ZM38.68 45.02C38.684 42.3956 37.7776 39.8511 36.1153 37.8202C34.4531 35.7894 32.1379 34.3979 29.5645 33.8831C26.9911 33.3683 24.3188 33.762 22.0032 34.9971C19.6876 36.2322 17.8721 38.2322 16.8661 40.6562C15.8602 43.0801 15.7261 45.7779 16.4868 48.2896C17.2475 50.8014 18.8558 52.9715 21.0375 54.4301C23.2192 55.8887 25.8393 56.5454 28.4511 56.2882C31.0629 56.0311 33.5046 54.8761 35.36 53.02C36.4137 51.9714 37.2494 50.7247 37.8192 49.3517C38.389 47.9787 38.6816 46.5065 38.68 45.02ZM34.02 48.48C34.1242 48.7302 34.1765 48.999 34.1736 49.2701C34.1708 49.5411 34.1129 49.8087 34.0034 50.0567C33.8939 50.3047 33.7352 50.5278 33.5369 50.7125C33.3385 50.8973 33.1047 51.0398 32.8496 51.1314C32.5945 51.2229 32.3234 51.2617 32.0529 51.2453C31.7823 51.229 31.5179 51.1578 31.2757 51.036C31.0335 50.9143 30.8186 50.7447 30.644 50.5373C30.4694 50.33 30.3387 50.0894 30.26 49.83L30.05 49.23H24.68L24.46 49.83C24.3219 50.2184 24.0672 50.5547 23.7306 50.7927C23.3941 51.0308 22.9922 51.1591 22.58 51.16C22.3481 51.1597 22.118 51.1191 21.9 51.04C21.6514 50.9526 21.4225 50.8169 21.2265 50.6408C21.0305 50.4647 20.8712 50.2515 20.7578 50.0136C20.6445 49.7757 20.5792 49.5178 20.5659 49.2546C20.5525 48.9914 20.5913 48.7282 20.68 48.48L24.13 38.87C24.2703 38.4819 24.5273 38.1466 24.8657 37.9103C25.2041 37.674 25.6073 37.5481 26.02 37.55H28.68C29.091 37.5502 29.492 37.677 29.8284 37.9132C30.1648 38.1494 30.4202 38.4835 30.56 38.87L33.26 46.39C33.307 46.4859 33.3438 46.5865 33.37 46.69L34.02 48.48ZM28.61 45.23L27.34 41.68L26.08 45.23H28.61ZM56.54 24.35C56.8779 24.5728 57.2754 24.6879 57.68 24.68C58.0137 24.6805 58.3423 24.5975 58.6357 24.4386C58.9291 24.2796 59.1781 24.0498 59.36 23.77C59.5039 23.5501 59.6031 23.304 59.6519 23.0457C59.7007 22.7874 59.698 22.522 59.6442 22.2648C59.5903 22.0075 59.4862 21.7634 59.338 21.5464C59.1897 21.3294 59.0001 21.1437 58.78 21C57.6877 20.2836 56.8591 19.2302 56.42 18H58.07C58.6004 18 59.1091 17.7893 59.4842 17.4142C59.8593 17.0391 60.07 16.5304 60.07 16C60.07 15.4696 59.8593 14.9609 59.4842 14.5858C59.1091 14.2107 58.6004 14 58.07 14H56.07V12.89C56.07 12.3596 55.8593 11.8509 55.4842 11.4758C55.1091 11.1007 54.6004 10.89 54.07 10.89C53.5396 10.89 53.0309 11.1007 52.6558 11.4758C52.2807 11.8509 52.07 12.3596 52.07 12.89V14.01H50.07C49.5396 14.01 49.0309 14.2207 48.6558 14.5958C48.2807 14.9709 48.07 15.4796 48.07 16.01C48.07 16.5404 48.2807 17.0491 48.6558 17.4242C49.0309 17.7993 49.5396 18.01 50.07 18.01H51.68C51.2494 19.2421 50.4231 20.2969 49.33 21.01C48.9729 21.2452 48.7006 21.5887 48.553 21.9901C48.4054 22.3914 48.3904 22.8295 48.5101 23.24C48.6298 23.6506 48.8779 24.0119 49.218 24.2711C49.5582 24.5302 49.9724 24.6736 50.4 24.68C50.7876 24.678 51.1663 24.5633 51.49 24.35C52.4649 23.7133 53.3211 22.9113 54.02 21.98C54.7185 22.9081 55.5708 23.7097 56.54 24.35Z" fill="url(#paint1_linear_57_5648)"/>
</g>
<defs>
<filter id="filter0_ddddd_57_5648" x="0.00593948" y="1" width="81.3541" height="115.36" filterUnits="userSpaceOnUse" color-interpolation-filters="sRGB">
<feFlood flood-opacity="0" result="BackgroundImageFix"/>
<feColorMatrix in="SourceAlpha" type="matrix" values="0 0 0 0 0 0 0 0 0 0 0 0 0 0 0 0 0 0 127 0" result="hardAlpha"/>
<feOffset dy="2"/>
<feGaussianBlur stdDeviation="2"/>
<feColorMatrix type="matrix" values="0 0 0 0 0.996078 0 0 0 0 0.235294 0 0 0 0 0 0 0 0 0.39 0"/>
<feBlend mode="normal" in2="BackgroundImageFix" result="effect1_dropShadow_57_5648"/>
<feColorMatrix in="SourceAlpha" type="matrix" values="0 0 0 0 0 0 0 0 0 0 0 0 0 0 0 0 0 0 127 0" result="hardAlpha"/>
<feOffset dy="7"/>
<feGaussianBlur stdDeviation="3.5"/>
<feColorMatrix type="matrix" values="0 0 0 0 0.996078 0 0 0 0 0.235294 0 0 0 0 0 0 0 0 0.34 0"/>
<feBlend mode="normal" in2="effect1_dropShadow_57_5648" result="effect2_dropShadow_57_5648"/>
<feColorMatrix in="SourceAlpha" type="matrix" values="0 0 0 0 0 0 0 0 0 0 0 0 0 0 0 0 0 0 127 0" result="hardAlpha"/>
<feOffset dy="16"/>
<feGaussianBlur stdDeviation="5"/>
<feColorMatrix type="matrix" values="0 0 0 0 0.996078 0 0 0 0 0.235294 0 0 0 0 0 0 0 0 0.2 0"/>
<feBlend mode="normal" in2="effect2_dropShadow_57_5648" result="effect3_dropShadow_57_5648"/>
<feColorMatrix in="SourceAlpha" type="matrix" values="0 0 0 0 0 0 0 0 0 0 0 0 0 0 0 0 0 0 127 0" result="hardAlpha"/>
<feOffset dy="28"/>
<feGaussianBlur stdDeviation="5.5"/>
<feColorMatrix type="matrix" values="0 0 0 0 0.996078 0 0 0 0 0.235294 0 0 0 0 0 0 0 0 0.06 0"/>
<feBlend mode="normal" in2="effect3_dropShadow_57_5648" result="effect4_dropShadow_57_5648"/>
<feColorMatrix in="SourceAlpha" type="matrix" values="0 0 0 0 0 0 0 0 0 0 0 0 0 0 0 0 0 0 127 0" result="hardAlpha"/>
<feOffset dy="44"/>
<feGaussianBlur stdDeviation="6"/>
<feColorMatrix type="matrix" values="0 0 0 0 0.996078 0 0 0 0 0.235294 0 0 0 0 0 0 0 0 0.01 0"/>
<feBlend mode="normal" in2="effect4_dropShadow_57_5648" result="effect5_dropShadow_57_5648"/>
<feBlend mode="normal" in="SourceGraphic" in2="effect5_dropShadow_57_5648" result="shape"/>
</filter>
<linearGradient id="paint0_linear_57_5648" x1="40.683" y1="3" x2="40.683" y2="60.36" gradientUnits="userSpaceOnUse">
<stop stop-color="#FFE81F"/>
<stop offset="1" stop-color="#FE3C00"/>
</linearGradient>
<linearGradient id="paint1_linear_57_5648" x1="49.1235" y1="-11.9798" x2="11.5774" y2="9.51159" gradientUnits="userSpaceOnUse">
<stop stop-color="#FF6AE7"/>
<stop offset="1" stop-color="#FF6AE7" stop-opacity="0"/>
</linearGradient>
</defs>
</svg>
